<?xml version="1.0" encoding="utf-8" standalone="no"?>
<!DOCTYPE svg PUBLIC "-//W3C//DTD SVG 1.1//EN"
  "http://www.w3.org/Graphics/SVG/1.1/DTD/svg11.dtd">
<svg xmlns:xlink="http://www.w3.org/1999/xlink" width="2160pt" height="576pt" viewBox="0 0 2160 576" xmlns="http://www.w3.org/2000/svg" version="1.1">
 <metadata>
  <rdf:RDF xmlns:dc="http://purl.org/dc/elements/1.1/" xmlns:cc="http://creativecommons.org/ns#" xmlns:rdf="http://www.w3.org/1999/02/22-rdf-syntax-ns#">
   <cc:Work>
    <dc:type rdf:resource="http://purl.org/dc/dcmitype/StillImage"/>
    <dc:date>2023-10-17T21:39:57.012536</dc:date>
    <dc:format>image/svg+xml</dc:format>
    <dc:creator>
     <cc:Agent>
      <dc:title>Matplotlib v3.7.0, https://matplotlib.org/</dc:title>
     </cc:Agent>
    </dc:creator>
   </cc:Work>
  </rdf:RDF>
 </metadata>
 <defs>
  <style type="text/css">*{stroke-linejoin: round; stroke-linecap: butt}</style>
 </defs>
 <g id="figure_1">
  <g id="patch_1">
   <path d="M 0 576 
L 2160 576 
L 2160 0 
L 0 0 
z
" style="fill: #ffffff"/>
  </g>
  <g id="axes_1">
   <g id="patch_2">
    <path d="M 97.72 437.28 
L 2149.2 437.28 
L 2149.2 32.64 
L 97.72 32.64 
z
" style="fill: #ffffff"/>
   </g>
   <g id="matplotlib.axis_1">
    <g id="xtick_1">
     <g id="line2d_1">
      <path d="M 103.699494 437.28 
L 103.699494 32.64 
" clip-path="url(#pf9bbb66928)" style="fill: none; stroke: #b0b0b0; stroke-width: 0.8; stroke-linecap: square"/>
     </g>
     <g id="line2d_2">
      <defs>
       <path id="m15473c962a" d="M 0 0 
L 0 6 
" style="stroke: #000000; stroke-width: 3"/>
      </defs>
      <g>
       <use xlink:href="#m15473c962a" x="103.699494" y="437.28" style="stroke: #000000; stroke-width: 3"/>
      </g>
     </g>
     <g id="text_1">
      <!-- 2019-08-03 -->
      <g transform="translate(109.218244 565.51125) rotate(-90) scale(0.2 -0.2)">
       <defs>
        <path id="DejaVuSans-32" d="M 1228 531 
L 3431 531 
L 3431 0 
L 469 0 
L 469 531 
Q 828 903 1448 1529 
Q 2069 2156 2228 2338 
Q 2531 2678 2651 2914 
Q 2772 3150 2772 3378 
Q 2772 3750 2511 3984 
Q 2250 4219 1831 4219 
Q 1534 4219 1204 4116 
Q 875 4013 500 3803 
L 500 4441 
Q 881 4594 1212 4672 
Q 1544 4750 1819 4750 
Q 2544 4750 2975 4387 
Q 3406 4025 3406 3419 
Q 3406 3131 3298 2873 
Q 3191 2616 2906 2266 
Q 2828 2175 2409 1742 
Q 1991 1309 1228 531 
z
" transform="scale(0.015625)"/>
        <path id="DejaVuSans-30" d="M 2034 4250 
Q 1547 4250 1301 3770 
Q 1056 3291 1056 2328 
Q 1056 1369 1301 889 
Q 1547 409 2034 409 
Q 2525 409 2770 889 
Q 3016 1369 3016 2328 
Q 3016 3291 2770 3770 
Q 2525 4250 2034 4250 
z
M 2034 4750 
Q 2819 4750 3233 4129 
Q 3647 3509 3647 2328 
Q 3647 1150 3233 529 
Q 2819 -91 2034 -91 
Q 1250 -91 836 529 
Q 422 1150 422 2328 
Q 422 3509 836 4129 
Q 1250 4750 2034 4750 
z
" transform="scale(0.015625)"/>
        <path id="DejaVuSans-31" d="M 794 531 
L 1825 531 
L 1825 4091 
L 703 3866 
L 703 4441 
L 1819 4666 
L 2450 4666 
L 2450 531 
L 3481 531 
L 3481 0 
L 794 0 
L 794 531 
z
" transform="scale(0.015625)"/>
        <path id="DejaVuSans-39" d="M 703 97 
L 703 672 
Q 941 559 1184 500 
Q 1428 441 1663 441 
Q 2288 441 2617 861 
Q 2947 1281 2994 2138 
Q 2813 1869 2534 1725 
Q 2256 1581 1919 1581 
Q 1219 1581 811 2004 
Q 403 2428 403 3163 
Q 403 3881 828 4315 
Q 1253 4750 1959 4750 
Q 2769 4750 3195 4129 
Q 3622 3509 3622 2328 
Q 3622 1225 3098 567 
Q 2575 -91 1691 -91 
Q 1453 -91 1209 -44 
Q 966 3 703 97 
z
M 1959 2075 
Q 2384 2075 2632 2365 
Q 2881 2656 2881 3163 
Q 2881 3666 2632 3958 
Q 2384 4250 1959 4250 
Q 1534 4250 1286 3958 
Q 1038 3666 1038 3163 
Q 1038 2656 1286 2365 
Q 1534 2075 1959 2075 
z
" transform="scale(0.015625)"/>
        <path id="DejaVuSans-2d" d="M 313 2009 
L 1997 2009 
L 1997 1497 
L 313 1497 
L 313 2009 
z
" transform="scale(0.015625)"/>
        <path id="DejaVuSans-38" d="M 2034 2216 
Q 1584 2216 1326 1975 
Q 1069 1734 1069 1313 
Q 1069 891 1326 650 
Q 1584 409 2034 409 
Q 2484 409 2743 651 
Q 3003 894 3003 1313 
Q 3003 1734 2745 1975 
Q 2488 2216 2034 2216 
z
M 1403 2484 
Q 997 2584 770 2862 
Q 544 3141 544 3541 
Q 544 4100 942 4425 
Q 1341 4750 2034 4750 
Q 2731 4750 3128 4425 
Q 3525 4100 3525 3541 
Q 3525 3141 3298 2862 
Q 3072 2584 2669 2484 
Q 3125 2378 3379 2068 
Q 3634 1759 3634 1313 
Q 3634 634 3220 271 
Q 2806 -91 2034 -91 
Q 1263 -91 848 271 
Q 434 634 434 1313 
Q 434 1759 690 2068 
Q 947 2378 1403 2484 
z
M 1172 3481 
Q 1172 3119 1398 2916 
Q 1625 2713 2034 2713 
Q 2441 2713 2670 2916 
Q 2900 3119 2900 3481 
Q 2900 3844 2670 4047 
Q 2441 4250 2034 4250 
Q 1625 4250 1398 4047 
Q 1172 3844 1172 3481 
z
" transform="scale(0.015625)"/>
        <path id="DejaVuSans-33" d="M 2597 2516 
Q 3050 2419 3304 2112 
Q 3559 1806 3559 1356 
Q 3559 666 3084 287 
Q 2609 -91 1734 -91 
Q 1441 -91 1130 -33 
Q 819 25 488 141 
L 488 750 
Q 750 597 1062 519 
Q 1375 441 1716 441 
Q 2309 441 2620 675 
Q 2931 909 2931 1356 
Q 2931 1769 2642 2001 
Q 2353 2234 1838 2234 
L 1294 2234 
L 1294 2753 
L 1863 2753 
Q 2328 2753 2575 2939 
Q 2822 3125 2822 3475 
Q 2822 3834 2567 4026 
Q 2313 4219 1838 4219 
Q 1578 4219 1281 4162 
Q 984 4106 628 3988 
L 628 4550 
Q 988 4650 1302 4700 
Q 1616 4750 1894 4750 
Q 2613 4750 3031 4423 
Q 3450 4097 3450 3541 
Q 3450 3153 3228 2886 
Q 3006 2619 2597 2516 
z
" transform="scale(0.015625)"/>
       </defs>
       <use xlink:href="#DejaVuSans-32"/>
       <use xlink:href="#DejaVuSans-30" x="63.623047"/>
       <use xlink:href="#DejaVuSans-31" x="127.246094"/>
       <use xlink:href="#DejaVuSans-39" x="190.869141"/>
       <use xlink:href="#DejaVuSans-2d" x="254.492188"/>
       <use xlink:href="#DejaVuSans-30" x="290.576172"/>
       <use xlink:href="#DejaVuSans-38" x="354.199219"/>
       <use xlink:href="#DejaVuSans-2d" x="417.822266"/>
       <use xlink:href="#DejaVuSans-30" x="453.90625"/>
       <use xlink:href="#DejaVuSans-33" x="517.529297"/>
      </g>
     </g>
    </g>
    <g id="xtick_2">
     <g id="line2d_3">
      <path d="M 173.476407 437.28 
L 173.476407 32.64 
" clip-path="url(#pf9bbb66928)" style="fill: none; stroke: #b0b0b0; stroke-width: 0.8; stroke-linecap: square"/>
     </g>
     <g id="line2d_4">
      <g>
       <use xlink:href="#m15473c962a" x="173.476407" y="437.28" style="stroke: #000000; stroke-width: 3"/>
      </g>
     </g>
     <g id="text_2">
      <!-- 2019-08-04 -->
      <g transform="translate(178.995157 565.51125) rotate(-90) scale(0.2 -0.2)">
       <defs>
        <path id="DejaVuSans-34" d="M 2419 4116 
L 825 1625 
L 2419 1625 
L 2419 4116 
z
M 2253 4666 
L 3047 4666 
L 3047 1625 
L 3713 1625 
L 3713 1100 
L 3047 1100 
L 3047 0 
L 2419 0 
L 2419 1100 
L 313 1100 
L 313 1709 
L 2253 4666 
z
" transform="scale(0.015625)"/>
       </defs>
       <use xlink:href="#DejaVuSans-32"/>
       <use xlink:href="#DejaVuSans-30" x="63.623047"/>
       <use xlink:href="#DejaVuSans-31" x="127.246094"/>
       <use xlink:href="#DejaVuSans-39" x="190.869141"/>
       <use xlink:href="#DejaVuSans-2d" x="254.492188"/>
       <use xlink:href="#DejaVuSans-30" x="290.576172"/>
       <use xlink:href="#DejaVuSans-38" x="354.199219"/>
       <use xlink:href="#DejaVuSans-2d" x="417.822266"/>
       <use xlink:href="#DejaVuSans-30" x="453.90625"/>
       <use xlink:href="#DejaVuSans-34" x="517.529297"/>
      </g>
     </g>
    </g>
    <g id="xtick_3">
     <g id="line2d_5">
      <path d="M 243.253319 437.28 
L 243.253319 32.64 
" clip-path="url(#pf9bbb66928)" style="fill: none; stroke: #b0b0b0; stroke-width: 0.8; stroke-linecap: square"/>
     </g>
     <g id="line2d_6">
      <g>
       <use xlink:href="#m15473c962a" x="243.253319" y="437.28" style="stroke: #000000; stroke-width: 3"/>
      </g>
     </g>
     <g id="text_3">
      <!-- 2019-08-05 -->
      <g transform="translate(248.772069 565.51125) rotate(-90) scale(0.2 -0.2)">
       <defs>
        <path id="DejaVuSans-35" d="M 691 4666 
L 3169 4666 
L 3169 4134 
L 1269 4134 
L 1269 2991 
Q 1406 3038 1543 3061 
Q 1681 3084 1819 3084 
Q 2600 3084 3056 2656 
Q 3513 2228 3513 1497 
Q 3513 744 3044 326 
Q 2575 -91 1722 -91 
Q 1428 -91 1123 -41 
Q 819 9 494 109 
L 494 744 
Q 775 591 1075 516 
Q 1375 441 1709 441 
Q 2250 441 2565 725 
Q 2881 1009 2881 1497 
Q 2881 1984 2565 2268 
Q 2250 2553 1709 2553 
Q 1456 2553 1204 2497 
Q 953 2441 691 2322 
L 691 4666 
z
" transform="scale(0.015625)"/>
       </defs>
       <use xlink:href="#DejaVuSans-32"/>
       <use xlink:href="#DejaVuSans-30" x="63.623047"/>
       <use xlink:href="#DejaVuSans-31" x="127.246094"/>
       <use xlink:href="#DejaVuSans-39" x="190.869141"/>
       <use xlink:href="#DejaVuSans-2d" x="254.492188"/>
       <use xlink:href="#DejaVuSans-30" x="290.576172"/>
       <use xlink:href="#DejaVuSans-38" x="354.199219"/>
       <use xlink:href="#DejaVuSans-2d" x="417.822266"/>
       <use xlink:href="#DejaVuSans-30" x="453.90625"/>
       <use xlink:href="#DejaVuSans-35" x="517.529297"/>
      </g>
     </g>
    </g>
    <g id="xtick_4">
     <g id="line2d_7">
      <path d="M 313.030232 437.28 
L 313.030232 32.64 
" clip-path="url(#pf9bbb66928)" style="fill: none; stroke: #b0b0b0; stroke-width: 0.8; stroke-linecap: square"/>
     </g>
     <g id="line2d_8">
      <g>
       <use xlink:href="#m15473c962a" x="313.030232" y="437.28" style="stroke: #000000; stroke-width: 3"/>
      </g>
     </g>
     <g id="text_4">
      <!-- 2019-08-06 -->
      <g transform="translate(318.548982 565.51125) rotate(-90) scale(0.2 -0.2)">
       <defs>
        <path id="DejaVuSans-36" d="M 2113 2584 
Q 1688 2584 1439 2293 
Q 1191 2003 1191 1497 
Q 1191 994 1439 701 
Q 1688 409 2113 409 
Q 2538 409 2786 701 
Q 3034 994 3034 1497 
Q 3034 2003 2786 2293 
Q 2538 2584 2113 2584 
z
M 3366 4563 
L 3366 3988 
Q 3128 4100 2886 4159 
Q 2644 4219 2406 4219 
Q 1781 4219 1451 3797 
Q 1122 3375 1075 2522 
Q 1259 2794 1537 2939 
Q 1816 3084 2150 3084 
Q 2853 3084 3261 2657 
Q 3669 2231 3669 1497 
Q 3669 778 3244 343 
Q 2819 -91 2113 -91 
Q 1303 -91 875 529 
Q 447 1150 447 2328 
Q 447 3434 972 4092 
Q 1497 4750 2381 4750 
Q 2619 4750 2861 4703 
Q 3103 4656 3366 4563 
z
" transform="scale(0.015625)"/>
       </defs>
       <use xlink:href="#DejaVuSans-32"/>
       <use xlink:href="#DejaVuSans-30" x="63.623047"/>
       <use xlink:href="#DejaVuSans-31" x="127.246094"/>
       <use xlink:href="#DejaVuSans-39" x="190.869141"/>
       <use xlink:href="#DejaVuSans-2d" x="254.492188"/>
       <use xlink:href="#DejaVuSans-30" x="290.576172"/>
       <use xlink:href="#DejaVuSans-38" x="354.199219"/>
       <use xlink:href="#DejaVuSans-2d" x="417.822266"/>
       <use xlink:href="#DejaVuSans-30" x="453.90625"/>
       <use xlink:href="#DejaVuSans-36" x="517.529297"/>
      </g>
     </g>
    </g>
    <g id="xtick_5">
     <g id="line2d_9">
      <path d="M 382.807145 437.28 
L 382.807145 32.64 
" clip-path="url(#pf9bbb66928)" style="fill: none; stroke: #b0b0b0; stroke-width: 0.8; stroke-linecap: square"/>
     </g>
     <g id="line2d_10">
      <g>
       <use xlink:href="#m15473c962a" x="382.807145" y="437.28" style="stroke: #000000; stroke-width: 3"/>
      </g>
     </g>
     <g id="text_5">
      <!-- 2019-08-07 -->
      <g transform="translate(388.325895 565.51125) rotate(-90) scale(0.2 -0.2)">
       <defs>
        <path id="DejaVuSans-37" d="M 525 4666 
L 3525 4666 
L 3525 4397 
L 1831 0 
L 1172 0 
L 2766 4134 
L 525 4134 
L 525 4666 
z
" transform="scale(0.015625)"/>
       </defs>
       <use xlink:href="#DejaVuSans-32"/>
       <use xlink:href="#DejaVuSans-30" x="63.623047"/>
       <use xlink:href="#DejaVuSans-31" x="127.246094"/>
       <use xlink:href="#DejaVuSans-39" x="190.869141"/>
       <use xlink:href="#DejaVuSans-2d" x="254.492188"/>
       <use xlink:href="#DejaVuSans-30" x="290.576172"/>
       <use xlink:href="#DejaVuSans-38" x="354.199219"/>
       <use xlink:href="#DejaVuSans-2d" x="417.822266"/>
       <use xlink:href="#DejaVuSans-30" x="453.90625"/>
       <use xlink:href="#DejaVuSans-37" x="517.529297"/>
      </g>
     </g>
    </g>
    <g id="xtick_6">
     <g id="line2d_11">
      <path d="M 452.584058 437.28 
L 452.584058 32.64 
" clip-path="url(#pf9bbb66928)" style="fill: none; stroke: #b0b0b0; stroke-width: 0.8; stroke-linecap: square"/>
     </g>
     <g id="line2d_12">
      <g>
       <use xlink:href="#m15473c962a" x="452.584058" y="437.28" style="stroke: #000000; stroke-width: 3"/>
      </g>
     </g>
     <g id="text_6">
      <!-- 2019-08-08 -->
      <g transform="translate(458.102808 565.51125) rotate(-90) scale(0.2 -0.2)">
       <use xlink:href="#DejaVuSans-32"/>
       <use xlink:href="#DejaVuSans-30" x="63.623047"/>
       <use xlink:href="#DejaVuSans-31" x="127.246094"/>
       <use xlink:href="#DejaVuSans-39" x="190.869141"/>
       <use xlink:href="#DejaVuSans-2d" x="254.492188"/>
       <use xlink:href="#DejaVuSans-30" x="290.576172"/>
       <use xlink:href="#DejaVuSans-38" x="354.199219"/>
       <use xlink:href="#DejaVuSans-2d" x="417.822266"/>
       <use xlink:href="#DejaVuSans-30" x="453.90625"/>
       <use xlink:href="#DejaVuSans-38" x="517.529297"/>
      </g>
     </g>
    </g>
    <g id="xtick_7">
     <g id="line2d_13">
      <path d="M 522.36097 437.28 
L 522.36097 32.64 
" clip-path="url(#pf9bbb66928)" style="fill: none; stroke: #b0b0b0; stroke-width: 0.8; stroke-linecap: square"/>
     </g>
     <g id="line2d_14">
      <g>
       <use xlink:href="#m15473c962a" x="522.36097" y="437.28" style="stroke: #000000; stroke-width: 3"/>
      </g>
     </g>
     <g id="text_7">
      <!-- 2019-08-09 -->
      <g transform="translate(527.87972 565.51125) rotate(-90) scale(0.2 -0.2)">
       <use xlink:href="#DejaVuSans-32"/>
       <use xlink:href="#DejaVuSans-30" x="63.623047"/>
       <use xlink:href="#DejaVuSans-31" x="127.246094"/>
       <use xlink:href="#DejaVuSans-39" x="190.869141"/>
       <use xlink:href="#DejaVuSans-2d" x="254.492188"/>
       <use xlink:href="#DejaVuSans-30" x="290.576172"/>
       <use xlink:href="#DejaVuSans-38" x="354.199219"/>
       <use xlink:href="#DejaVuSans-2d" x="417.822266"/>
       <use xlink:href="#DejaVuSans-30" x="453.90625"/>
       <use xlink:href="#DejaVuSans-39" x="517.529297"/>
      </g>
     </g>
    </g>
    <g id="xtick_8">
     <g id="line2d_15">
      <path d="M 592.137883 437.28 
L 592.137883 32.64 
" clip-path="url(#pf9bbb66928)" style="fill: none; stroke: #b0b0b0; stroke-width: 0.8; stroke-linecap: square"/>
     </g>
     <g id="line2d_16">
      <g>
       <use xlink:href="#m15473c962a" x="592.137883" y="437.28" style="stroke: #000000; stroke-width: 3"/>
      </g>
     </g>
     <g id="text_8">
      <!-- 2019-08-10 -->
      <g transform="translate(597.656633 565.51125) rotate(-90) scale(0.2 -0.2)">
       <use xlink:href="#DejaVuSans-32"/>
       <use xlink:href="#DejaVuSans-30" x="63.623047"/>
       <use xlink:href="#DejaVuSans-31" x="127.246094"/>
       <use xlink:href="#DejaVuSans-39" x="190.869141"/>
       <use xlink:href="#DejaVuSans-2d" x="254.492188"/>
       <use xlink:href="#DejaVuSans-30" x="290.576172"/>
       <use xlink:href="#DejaVuSans-38" x="354.199219"/>
       <use xlink:href="#DejaVuSans-2d" x="417.822266"/>
       <use xlink:href="#DejaVuSans-31" x="453.90625"/>
       <use xlink:href="#DejaVuSans-30" x="517.529297"/>
      </g>
     </g>
    </g>
    <g id="xtick_9">
     <g id="line2d_17">
      <path d="M 661.914796 437.28 
L 661.914796 32.64 
" clip-path="url(#pf9bbb66928)" style="fill: none; stroke: #b0b0b0; stroke-width: 0.8; stroke-linecap: square"/>
     </g>
     <g id="line2d_18">
      <g>
       <use xlink:href="#m15473c962a" x="661.914796" y="437.28" style="stroke: #000000; stroke-width: 3"/>
      </g>
     </g>
     <g id="text_9">
      <!-- 2019-08-11 -->
      <g transform="translate(667.433546 565.51125) rotate(-90) scale(0.2 -0.2)">
       <use xlink:href="#DejaVuSans-32"/>
       <use xlink:href="#DejaVuSans-30" x="63.623047"/>
       <use xlink:href="#DejaVuSans-31" x="127.246094"/>
       <use xlink:href="#DejaVuSans-39" x="190.869141"/>
       <use xlink:href="#DejaVuSans-2d" x="254.492188"/>
       <use xlink:href="#DejaVuSans-30" x="290.576172"/>
       <use xlink:href="#DejaVuSans-38" x="354.199219"/>
       <use xlink:href="#DejaVuSans-2d" x="417.822266"/>
       <use xlink:href="#DejaVuSans-31" x="453.90625"/>
       <use xlink:href="#DejaVuSans-31" x="517.529297"/>
      </g>
     </g>
    </g>
    <g id="xtick_10">
     <g id="line2d_19">
      <path d="M 731.691709 437.28 
L 731.691709 32.64 
" clip-path="url(#pf9bbb66928)" style="fill: none; stroke: #b0b0b0; stroke-width: 0.8; stroke-linecap: square"/>
     </g>
     <g id="line2d_20">
      <g>
       <use xlink:href="#m15473c962a" x="731.691709" y="437.28" style="stroke: #000000; stroke-width: 3"/>
      </g>
     </g>
     <g id="text_10">
      <!-- 2019-08-12 -->
      <g transform="translate(737.210459 565.51125) rotate(-90) scale(0.2 -0.2)">
       <use xlink:href="#DejaVuSans-32"/>
       <use xlink:href="#DejaVuSans-30" x="63.623047"/>
       <use xlink:href="#DejaVuSans-31" x="127.246094"/>
       <use xlink:href="#DejaVuSans-39" x="190.869141"/>
       <use xlink:href="#DejaVuSans-2d" x="254.492188"/>
       <use xlink:href="#DejaVuSans-30" x="290.576172"/>
       <use xlink:href="#DejaVuSans-38" x="354.199219"/>
       <use xlink:href="#DejaVuSans-2d" x="417.822266"/>
       <use xlink:href="#DejaVuSans-31" x="453.90625"/>
       <use xlink:href="#DejaVuSans-32" x="517.529297"/>
      </g>
     </g>
    </g>
    <g id="xtick_11">
     <g id="line2d_21">
      <path d="M 801.468621 437.28 
L 801.468621 32.64 
" clip-path="url(#pf9bbb66928)" style="fill: none; stroke: #b0b0b0; stroke-width: 0.8; stroke-linecap: square"/>
     </g>
     <g id="line2d_22">
      <g>
       <use xlink:href="#m15473c962a" x="801.468621" y="437.28" style="stroke: #000000; stroke-width: 3"/>
      </g>
     </g>
     <g id="text_11">
      <!-- 2019-08-13 -->
      <g transform="translate(806.987371 565.51125) rotate(-90) scale(0.2 -0.2)">
       <use xlink:href="#DejaVuSans-32"/>
       <use xlink:href="#DejaVuSans-30" x="63.623047"/>
       <use xlink:href="#DejaVuSans-31" x="127.246094"/>
       <use xlink:href="#DejaVuSans-39" x="190.869141"/>
       <use xlink:href="#DejaVuSans-2d" x="254.492188"/>
       <use xlink:href="#DejaVuSans-30" x="290.576172"/>
       <use xlink:href="#DejaVuSans-38" x="354.199219"/>
       <use xlink:href="#DejaVuSans-2d" x="417.822266"/>
       <use xlink:href="#DejaVuSans-31" x="453.90625"/>
       <use xlink:href="#DejaVuSans-33" x="517.529297"/>
      </g>
     </g>
    </g>
    <g id="xtick_12">
     <g id="line2d_23">
      <path d="M 871.245534 437.28 
L 871.245534 32.64 
" clip-path="url(#pf9bbb66928)" style="fill: none; stroke: #b0b0b0; stroke-width: 0.8; stroke-linecap: square"/>
     </g>
     <g id="line2d_24">
      <g>
       <use xlink:href="#m15473c962a" x="871.245534" y="437.28" style="stroke: #000000; stroke-width: 3"/>
      </g>
     </g>
     <g id="text_12">
      <!-- 2019-08-14 -->
      <g transform="translate(876.764284 565.51125) rotate(-90) scale(0.2 -0.2)">
       <use xlink:href="#DejaVuSans-32"/>
       <use xlink:href="#DejaVuSans-30" x="63.623047"/>
       <use xlink:href="#DejaVuSans-31" x="127.246094"/>
       <use xlink:href="#DejaVuSans-39" x="190.869141"/>
       <use xlink:href="#DejaVuSans-2d" x="254.492188"/>
       <use xlink:href="#DejaVuSans-30" x="290.576172"/>
       <use xlink:href="#DejaVuSans-38" x="354.199219"/>
       <use xlink:href="#DejaVuSans-2d" x="417.822266"/>
       <use xlink:href="#DejaVuSans-31" x="453.90625"/>
       <use xlink:href="#DejaVuSans-34" x="517.529297"/>
      </g>
     </g>
    </g>
    <g id="xtick_13">
     <g id="line2d_25">
      <path d="M 941.022447 437.28 
L 941.022447 32.64 
" clip-path="url(#pf9bbb66928)" style="fill: none; stroke: #b0b0b0; stroke-width: 0.8; stroke-linecap: square"/>
     </g>
     <g id="line2d_26">
      <g>
       <use xlink:href="#m15473c962a" x="941.022447" y="437.28" style="stroke: #000000; stroke-width: 3"/>
      </g>
     </g>
     <g id="text_13">
      <!-- 2019-08-15 -->
      <g transform="translate(946.541197 565.51125) rotate(-90) scale(0.2 -0.2)">
       <use xlink:href="#DejaVuSans-32"/>
       <use xlink:href="#DejaVuSans-30" x="63.623047"/>
       <use xlink:href="#DejaVuSans-31" x="127.246094"/>
       <use xlink:href="#DejaVuSans-39" x="190.869141"/>
       <use xlink:href="#DejaVuSans-2d" x="254.492188"/>
       <use xlink:href="#DejaVuSans-30" x="290.576172"/>
       <use xlink:href="#DejaVuSans-38" x="354.199219"/>
       <use xlink:href="#DejaVuSans-2d" x="417.822266"/>
       <use xlink:href="#DejaVuSans-31" x="453.90625"/>
       <use xlink:href="#DejaVuSans-35" x="517.529297"/>
      </g>
     </g>
    </g>
    <g id="xtick_14">
     <g id="line2d_27">
      <path d="M 1010.79936 437.28 
L 1010.79936 32.64 
" clip-path="url(#pf9bbb66928)" style="fill: none; stroke: #b0b0b0; stroke-width: 0.8; stroke-linecap: square"/>
     </g>
     <g id="line2d_28">
      <g>
       <use xlink:href="#m15473c962a" x="1010.79936" y="437.28" style="stroke: #000000; stroke-width: 3"/>
      </g>
     </g>
     <g id="text_14">
      <!-- 2019-08-16 -->
      <g transform="translate(1016.31811 565.51125) rotate(-90) scale(0.2 -0.2)">
       <use xlink:href="#DejaVuSans-32"/>
       <use xlink:href="#DejaVuSans-30" x="63.623047"/>
       <use xlink:href="#DejaVuSans-31" x="127.246094"/>
       <use xlink:href="#DejaVuSans-39" x="190.869141"/>
       <use xlink:href="#DejaVuSans-2d" x="254.492188"/>
       <use xlink:href="#DejaVuSans-30" x="290.576172"/>
       <use xlink:href="#DejaVuSans-38" x="354.199219"/>
       <use xlink:href="#DejaVuSans-2d" x="417.822266"/>
       <use xlink:href="#DejaVuSans-31" x="453.90625"/>
       <use xlink:href="#DejaVuSans-36" x="517.529297"/>
      </g>
     </g>
    </g>
    <g id="xtick_15">
     <g id="line2d_29">
      <path d="M 1080.576272 437.28 
L 1080.576272 32.64 
" clip-path="url(#pf9bbb66928)" style="fill: none; stroke: #b0b0b0; stroke-width: 0.8; stroke-linecap: square"/>
     </g>
     <g id="line2d_30">
      <g>
       <use xlink:href="#m15473c962a" x="1080.576272" y="437.28" style="stroke: #000000; stroke-width: 3"/>
      </g>
     </g>
     <g id="text_15">
      <!-- 2019-08-17 -->
      <g transform="translate(1086.095022 565.51125) rotate(-90) scale(0.2 -0.2)">
       <use xlink:href="#DejaVuSans-32"/>
       <use xlink:href="#DejaVuSans-30" x="63.623047"/>
       <use xlink:href="#DejaVuSans-31" x="127.246094"/>
       <use xlink:href="#DejaVuSans-39" x="190.869141"/>
       <use xlink:href="#DejaVuSans-2d" x="254.492188"/>
       <use xlink:href="#DejaVuSans-30" x="290.576172"/>
       <use xlink:href="#DejaVuSans-38" x="354.199219"/>
       <use xlink:href="#DejaVuSans-2d" x="417.822266"/>
       <use xlink:href="#DejaVuSans-31" x="453.90625"/>
       <use xlink:href="#DejaVuSans-37" x="517.529297"/>
      </g>
     </g>
    </g>
    <g id="xtick_16">
     <g id="line2d_31">
      <path d="M 1150.353185 437.28 
L 1150.353185 32.64 
" clip-path="url(#pf9bbb66928)" style="fill: none; stroke: #b0b0b0; stroke-width: 0.8; stroke-linecap: square"/>
     </g>
     <g id="line2d_32">
      <g>
       <use xlink:href="#m15473c962a" x="1150.353185" y="437.28" style="stroke: #000000; stroke-width: 3"/>
      </g>
     </g>
     <g id="text_16">
      <!-- 2019-08-18 -->
      <g transform="translate(1155.871935 565.51125) rotate(-90) scale(0.2 -0.2)">
       <use xlink:href="#DejaVuSans-32"/>
       <use xlink:href="#DejaVuSans-30" x="63.623047"/>
       <use xlink:href="#DejaVuSans-31" x="127.246094"/>
       <use xlink:href="#DejaVuSans-39" x="190.869141"/>
       <use xlink:href="#DejaVuSans-2d" x="254.492188"/>
       <use xlink:href="#DejaVuSans-30" x="290.576172"/>
       <use xlink:href="#DejaVuSans-38" x="354.199219"/>
       <use xlink:href="#DejaVuSans-2d" x="417.822266"/>
       <use xlink:href="#DejaVuSans-31" x="453.90625"/>
       <use xlink:href="#DejaVuSans-38" x="517.529297"/>
      </g>
     </g>
    </g>
    <g id="xtick_17">
     <g id="line2d_33">
      <path d="M 1220.130098 437.28 
L 1220.130098 32.64 
" clip-path="url(#pf9bbb66928)" style="fill: none; stroke: #b0b0b0; stroke-width: 0.8; stroke-linecap: square"/>
     </g>
     <g id="line2d_34">
      <g>
       <use xlink:href="#m15473c962a" x="1220.130098" y="437.28" style="stroke: #000000; stroke-width: 3"/>
      </g>
     </g>
     <g id="text_17">
      <!-- 2019-08-19 -->
      <g transform="translate(1225.648848 565.51125) rotate(-90) scale(0.2 -0.2)">
       <use xlink:href="#DejaVuSans-32"/>
       <use xlink:href="#DejaVuSans-30" x="63.623047"/>
       <use xlink:href="#DejaVuSans-31" x="127.246094"/>
       <use xlink:href="#DejaVuSans-39" x="190.869141"/>
       <use xlink:href="#DejaVuSans-2d" x="254.492188"/>
       <use xlink:href="#DejaVuSans-30" x="290.576172"/>
       <use xlink:href="#DejaVuSans-38" x="354.199219"/>
       <use xlink:href="#DejaVuSans-2d" x="417.822266"/>
       <use xlink:href="#DejaVuSans-31" x="453.90625"/>
       <use xlink:href="#DejaVuSans-39" x="517.529297"/>
      </g>
     </g>
    </g>
    <g id="xtick_18">
     <g id="line2d_35">
      <path d="M 1289.907011 437.28 
L 1289.907011 32.64 
" clip-path="url(#pf9bbb66928)" style="fill: none; stroke: #b0b0b0; stroke-width: 0.8; stroke-linecap: square"/>
     </g>
     <g id="line2d_36">
      <g>
       <use xlink:href="#m15473c962a" x="1289.907011" y="437.28" style="stroke: #000000; stroke-width: 3"/>
      </g>
     </g>
     <g id="text_18">
      <!-- 2019-08-20 -->
      <g transform="translate(1295.425761 565.51125) rotate(-90) scale(0.2 -0.2)">
       <use xlink:href="#DejaVuSans-32"/>
       <use xlink:href="#DejaVuSans-30" x="63.623047"/>
       <use xlink:href="#DejaVuSans-31" x="127.246094"/>
       <use xlink:href="#DejaVuSans-39" x="190.869141"/>
       <use xlink:href="#DejaVuSans-2d" x="254.492188"/>
       <use xlink:href="#DejaVuSans-30" x="290.576172"/>
       <use xlink:href="#DejaVuSans-38" x="354.199219"/>
       <use xlink:href="#DejaVuSans-2d" x="417.822266"/>
       <use xlink:href="#DejaVuSans-32" x="453.90625"/>
       <use xlink:href="#DejaVuSans-30" x="517.529297"/>
      </g>
     </g>
    </g>
    <g id="xtick_19">
     <g id="line2d_37">
      <path d="M 1359.683923 437.28 
L 1359.683923 32.64 
" clip-path="url(#pf9bbb66928)" style="fill: none; stroke: #b0b0b0; stroke-width: 0.8; stroke-linecap: square"/>
     </g>
     <g id="line2d_38">
      <g>
       <use xlink:href="#m15473c962a" x="1359.683923" y="437.28" style="stroke: #000000; stroke-width: 3"/>
      </g>
     </g>
     <g id="text_19">
      <!-- 2019-08-21 -->
      <g transform="translate(1365.202673 565.51125) rotate(-90) scale(0.2 -0.2)">
       <use xlink:href="#DejaVuSans-32"/>
       <use xlink:href="#DejaVuSans-30" x="63.623047"/>
       <use xlink:href="#DejaVuSans-31" x="127.246094"/>
       <use xlink:href="#DejaVuSans-39" x="190.869141"/>
       <use xlink:href="#DejaVuSans-2d" x="254.492188"/>
       <use xlink:href="#DejaVuSans-30" x="290.576172"/>
       <use xlink:href="#DejaVuSans-38" x="354.199219"/>
       <use xlink:href="#DejaVuSans-2d" x="417.822266"/>
       <use xlink:href="#DejaVuSans-32" x="453.90625"/>
       <use xlink:href="#DejaVuSans-31" x="517.529297"/>
      </g>
     </g>
    </g>
    <g id="xtick_20">
     <g id="line2d_39">
      <path d="M 1429.460836 437.28 
L 1429.460836 32.64 
" clip-path="url(#pf9bbb66928)" style="fill: none; stroke: #b0b0b0; stroke-width: 0.8; stroke-linecap: square"/>
     </g>
     <g id="line2d_40">
      <g>
       <use xlink:href="#m15473c962a" x="1429.460836" y="437.28" style="stroke: #000000; stroke-width: 3"/>
      </g>
     </g>
     <g id="text_20">
      <!-- 2019-08-22 -->
      <g transform="translate(1434.979586 565.51125) rotate(-90) scale(0.2 -0.2)">
       <use xlink:href="#DejaVuSans-32"/>
       <use xlink:href="#DejaVuSans-30" x="63.623047"/>
       <use xlink:href="#DejaVuSans-31" x="127.246094"/>
       <use xlink:href="#DejaVuSans-39" x="190.869141"/>
       <use xlink:href="#DejaVuSans-2d" x="254.492188"/>
       <use xlink:href="#DejaVuSans-30" x="290.576172"/>
       <use xlink:href="#DejaVuSans-38" x="354.199219"/>
       <use xlink:href="#DejaVuSans-2d" x="417.822266"/>
       <use xlink:href="#DejaVuSans-32" x="453.90625"/>
       <use xlink:href="#DejaVuSans-32" x="517.529297"/>
      </g>
     </g>
    </g>
    <g id="xtick_21">
     <g id="line2d_41">
      <path d="M 1499.237749 437.28 
L 1499.237749 32.64 
" clip-path="url(#pf9bbb66928)" style="fill: none; stroke: #b0b0b0; stroke-width: 0.8; stroke-linecap: square"/>
     </g>
     <g id="line2d_42">
      <g>
       <use xlink:href="#m15473c962a" x="1499.237749" y="437.28" style="stroke: #000000; stroke-width: 3"/>
      </g>
     </g>
     <g id="text_21">
      <!-- 2019-08-23 -->
      <g transform="translate(1504.756499 565.51125) rotate(-90) scale(0.2 -0.2)">
       <use xlink:href="#DejaVuSans-32"/>
       <use xlink:href="#DejaVuSans-30" x="63.623047"/>
       <use xlink:href="#DejaVuSans-31" x="127.246094"/>
       <use xlink:href="#DejaVuSans-39" x="190.869141"/>
       <use xlink:href="#DejaVuSans-2d" x="254.492188"/>
       <use xlink:href="#DejaVuSans-30" x="290.576172"/>
       <use xlink:href="#DejaVuSans-38" x="354.199219"/>
       <use xlink:href="#DejaVuSans-2d" x="417.822266"/>
       <use xlink:href="#DejaVuSans-32" x="453.90625"/>
       <use xlink:href="#DejaVuSans-33" x="517.529297"/>
      </g>
     </g>
    </g>
    <g id="xtick_22">
     <g id="line2d_43">
      <path d="M 1569.014662 437.28 
L 1569.014662 32.64 
" clip-path="url(#pf9bbb66928)" style="fill: none; stroke: #b0b0b0; stroke-width: 0.8; stroke-linecap: square"/>
     </g>
     <g id="line2d_44">
      <g>
       <use xlink:href="#m15473c962a" x="1569.014662" y="437.28" style="stroke: #000000; stroke-width: 3"/>
      </g>
     </g>
     <g id="text_22">
      <!-- 2019-08-24 -->
      <g transform="translate(1574.533412 565.51125) rotate(-90) scale(0.2 -0.2)">
       <use xlink:href="#DejaVuSans-32"/>
       <use xlink:href="#DejaVuSans-30" x="63.623047"/>
       <use xlink:href="#DejaVuSans-31" x="127.246094"/>
       <use xlink:href="#DejaVuSans-39" x="190.869141"/>
       <use xlink:href="#DejaVuSans-2d" x="254.492188"/>
       <use xlink:href="#DejaVuSans-30" x="290.576172"/>
       <use xlink:href="#DejaVuSans-38" x="354.199219"/>
       <use xlink:href="#DejaVuSans-2d" x="417.822266"/>
       <use xlink:href="#DejaVuSans-32" x="453.90625"/>
       <use xlink:href="#DejaVuSans-34" x="517.529297"/>
      </g>
     </g>
    </g>
    <g id="xtick_23">
     <g id="line2d_45">
      <path d="M 1638.791574 437.28 
L 1638.791574 32.64 
" clip-path="url(#pf9bbb66928)" style="fill: none; stroke: #b0b0b0; stroke-width: 0.8; stroke-linecap: square"/>
     </g>
     <g id="line2d_46">
      <g>
       <use xlink:href="#m15473c962a" x="1638.791574" y="437.28" style="stroke: #000000; stroke-width: 3"/>
      </g>
     </g>
     <g id="text_23">
      <!-- 2019-08-25 -->
      <g transform="translate(1644.310324 565.51125) rotate(-90) scale(0.2 -0.2)">
       <use xlink:href="#DejaVuSans-32"/>
       <use xlink:href="#DejaVuSans-30" x="63.623047"/>
       <use xlink:href="#DejaVuSans-31" x="127.246094"/>
       <use xlink:href="#DejaVuSans-39" x="190.869141"/>
       <use xlink:href="#DejaVuSans-2d" x="254.492188"/>
       <use xlink:href="#DejaVuSans-30" x="290.576172"/>
       <use xlink:href="#DejaVuSans-38" x="354.199219"/>
       <use xlink:href="#DejaVuSans-2d" x="417.822266"/>
       <use xlink:href="#DejaVuSans-32" x="453.90625"/>
       <use xlink:href="#DejaVuSans-35" x="517.529297"/>
      </g>
     </g>
    </g>
    <g id="xtick_24">
     <g id="line2d_47">
      <path d="M 1708.568487 437.28 
L 1708.568487 32.64 
" clip-path="url(#pf9bbb66928)" style="fill: none; stroke: #b0b0b0; stroke-width: 0.8; stroke-linecap: square"/>
     </g>
     <g id="line2d_48">
      <g>
       <use xlink:href="#m15473c962a" x="1708.568487" y="437.28" style="stroke: #000000; stroke-width: 3"/>
      </g>
     </g>
     <g id="text_24">
      <!-- 2019-08-26 -->
      <g transform="translate(1714.087237 565.51125) rotate(-90) scale(0.2 -0.2)">
       <use xlink:href="#DejaVuSans-32"/>
       <use xlink:href="#DejaVuSans-30" x="63.623047"/>
       <use xlink:href="#DejaVuSans-31" x="127.246094"/>
       <use xlink:href="#DejaVuSans-39" x="190.869141"/>
       <use xlink:href="#DejaVuSans-2d" x="254.492188"/>
       <use xlink:href="#DejaVuSans-30" x="290.576172"/>
       <use xlink:href="#DejaVuSans-38" x="354.199219"/>
       <use xlink:href="#DejaVuSans-2d" x="417.822266"/>
       <use xlink:href="#DejaVuSans-32" x="453.90625"/>
       <use xlink:href="#DejaVuSans-36" x="517.529297"/>
      </g>
     </g>
    </g>
    <g id="xtick_25">
     <g id="line2d_49">
      <path d="M 1778.3454 437.28 
L 1778.3454 32.64 
" clip-path="url(#pf9bbb66928)" style="fill: none; stroke: #b0b0b0; stroke-width: 0.8; stroke-linecap: square"/>
     </g>
     <g id="line2d_50">
      <g>
       <use xlink:href="#m15473c962a" x="1778.3454" y="437.28" style="stroke: #000000; stroke-width: 3"/>
      </g>
     </g>
     <g id="text_25">
      <!-- 2019-08-27 -->
      <g transform="translate(1783.86415 565.51125) rotate(-90) scale(0.2 -0.2)">
       <use xlink:href="#DejaVuSans-32"/>
       <use xlink:href="#DejaVuSans-30" x="63.623047"/>
       <use xlink:href="#DejaVuSans-31" x="127.246094"/>
       <use xlink:href="#DejaVuSans-39" x="190.869141"/>
       <use xlink:href="#DejaVuSans-2d" x="254.492188"/>
       <use xlink:href="#DejaVuSans-30" x="290.576172"/>
       <use xlink:href="#DejaVuSans-38" x="354.199219"/>
       <use xlink:href="#DejaVuSans-2d" x="417.822266"/>
       <use xlink:href="#DejaVuSans-32" x="453.90625"/>
       <use xlink:href="#DejaVuSans-37" x="517.529297"/>
      </g>
     </g>
    </g>
    <g id="xtick_26">
     <g id="line2d_51">
      <path d="M 1848.122313 437.28 
L 1848.122313 32.64 
" clip-path="url(#pf9bbb66928)" style="fill: none; stroke: #b0b0b0; stroke-width: 0.8; stroke-linecap: square"/>
     </g>
     <g id="line2d_52">
      <g>
       <use xlink:href="#m15473c962a" x="1848.122313" y="437.28" style="stroke: #000000; stroke-width: 3"/>
      </g>
     </g>
     <g id="text_26">
      <!-- 2019-08-28 -->
      <g transform="translate(1853.641063 565.51125) rotate(-90) scale(0.2 -0.2)">
       <use xlink:href="#DejaVuSans-32"/>
       <use xlink:href="#DejaVuSans-30" x="63.623047"/>
       <use xlink:href="#DejaVuSans-31" x="127.246094"/>
       <use xlink:href="#DejaVuSans-39" x="190.869141"/>
       <use xlink:href="#DejaVuSans-2d" x="254.492188"/>
       <use xlink:href="#DejaVuSans-30" x="290.576172"/>
       <use xlink:href="#DejaVuSans-38" x="354.199219"/>
       <use xlink:href="#DejaVuSans-2d" x="417.822266"/>
       <use xlink:href="#DejaVuSans-32" x="453.90625"/>
       <use xlink:href="#DejaVuSans-38" x="517.529297"/>
      </g>
     </g>
    </g>
    <g id="xtick_27">
     <g id="line2d_53">
      <path d="M 1917.899225 437.28 
L 1917.899225 32.64 
" clip-path="url(#pf9bbb66928)" style="fill: none; stroke: #b0b0b0; stroke-width: 0.8; stroke-linecap: square"/>
     </g>
     <g id="line2d_54">
      <g>
       <use xlink:href="#m15473c962a" x="1917.899225" y="437.28" style="stroke: #000000; stroke-width: 3"/>
      </g>
     </g>
     <g id="text_27">
      <!-- 2019-08-29 -->
      <g transform="translate(1923.417975 565.51125) rotate(-90) scale(0.2 -0.2)">
       <use xlink:href="#DejaVuSans-32"/>
       <use xlink:href="#DejaVuSans-30" x="63.623047"/>
       <use xlink:href="#DejaVuSans-31" x="127.246094"/>
       <use xlink:href="#DejaVuSans-39" x="190.869141"/>
       <use xlink:href="#DejaVuSans-2d" x="254.492188"/>
       <use xlink:href="#DejaVuSans-30" x="290.576172"/>
       <use xlink:href="#DejaVuSans-38" x="354.199219"/>
       <use xlink:href="#DejaVuSans-2d" x="417.822266"/>
       <use xlink:href="#DejaVuSans-32" x="453.90625"/>
       <use xlink:href="#DejaVuSans-39" x="517.529297"/>
      </g>
     </g>
    </g>
    <g id="xtick_28">
     <g id="line2d_55">
      <path d="M 1987.676138 437.28 
L 1987.676138 32.64 
" clip-path="url(#pf9bbb66928)" style="fill: none; stroke: #b0b0b0; stroke-width: 0.8; stroke-linecap: square"/>
     </g>
     <g id="line2d_56">
      <g>
       <use xlink:href="#m15473c962a" x="1987.676138" y="437.28" style="stroke: #000000; stroke-width: 3"/>
      </g>
     </g>
     <g id="text_28">
      <!-- 2019-08-30 -->
      <g transform="translate(1993.194888 565.51125) rotate(-90) scale(0.2 -0.2)">
       <use xlink:href="#DejaVuSans-32"/>
       <use xlink:href="#DejaVuSans-30" x="63.623047"/>
       <use xlink:href="#DejaVuSans-31" x="127.246094"/>
       <use xlink:href="#DejaVuSans-39" x="190.869141"/>
       <use xlink:href="#DejaVuSans-2d" x="254.492188"/>
       <use xlink:href="#DejaVuSans-30" x="290.576172"/>
       <use xlink:href="#DejaVuSans-38" x="354.199219"/>
       <use xlink:href="#DejaVuSans-2d" x="417.822266"/>
       <use xlink:href="#DejaVuSans-33" x="453.90625"/>
       <use xlink:href="#DejaVuSans-30" x="517.529297"/>
      </g>
     </g>
    </g>
    <g id="xtick_29">
     <g id="line2d_57">
      <path d="M 2057.453051 437.28 
L 2057.453051 32.64 
" clip-path="url(#pf9bbb66928)" style="fill: none; stroke: #b0b0b0; stroke-width: 0.8; stroke-linecap: square"/>
     </g>
     <g id="line2d_58">
      <g>
       <use xlink:href="#m15473c962a" x="2057.453051" y="437.28" style="stroke: #000000; stroke-width: 3"/>
      </g>
     </g>
     <g id="text_29">
      <!-- 2019-08-31 -->
      <g transform="translate(2062.971801 565.51125) rotate(-90) scale(0.2 -0.2)">
       <use xlink:href="#DejaVuSans-32"/>
       <use xlink:href="#DejaVuSans-30" x="63.623047"/>
       <use xlink:href="#DejaVuSans-31" x="127.246094"/>
       <use xlink:href="#DejaVuSans-39" x="190.869141"/>
       <use xlink:href="#DejaVuSans-2d" x="254.492188"/>
       <use xlink:href="#DejaVuSans-30" x="290.576172"/>
       <use xlink:href="#DejaVuSans-38" x="354.199219"/>
       <use xlink:href="#DejaVuSans-2d" x="417.822266"/>
       <use xlink:href="#DejaVuSans-33" x="453.90625"/>
       <use xlink:href="#DejaVuSans-31" x="517.529297"/>
      </g>
     </g>
    </g>
    <g id="xtick_30">
     <g id="line2d_59">
      <path d="M 2127.229964 437.28 
L 2127.229964 32.64 
" clip-path="url(#pf9bbb66928)" style="fill: none; stroke: #b0b0b0; stroke-width: 0.8; stroke-linecap: square"/>
     </g>
     <g id="line2d_60">
      <g>
       <use xlink:href="#m15473c962a" x="2127.229964" y="437.28" style="stroke: #000000; stroke-width: 3"/>
      </g>
     </g>
     <g id="text_30">
      <!-- 2019-09-01 -->
      <g transform="translate(2132.748714 565.51125) rotate(-90) scale(0.2 -0.2)">
       <use xlink:href="#DejaVuSans-32"/>
       <use xlink:href="#DejaVuSans-30" x="63.623047"/>
       <use xlink:href="#DejaVuSans-31" x="127.246094"/>
       <use xlink:href="#DejaVuSans-39" x="190.869141"/>
       <use xlink:href="#DejaVuSans-2d" x="254.492188"/>
       <use xlink:href="#DejaVuSans-30" x="290.576172"/>
       <use xlink:href="#DejaVuSans-39" x="354.199219"/>
       <use xlink:href="#DejaVuSans-2d" x="417.822266"/>
       <use xlink:href="#DejaVuSans-30" x="453.90625"/>
       <use xlink:href="#DejaVuSans-31" x="517.529297"/>
      </g>
     </g>
    </g>
   </g>
   <g id="matplotlib.axis_2">
    <g id="ytick_1">
     <g id="line2d_61">
      <defs>
       <path id="m803be78417" d="M 0 0 
L -6 0 
" style="stroke: #000000; stroke-width: 3"/>
      </defs>
      <g>
       <use xlink:href="#m803be78417" x="97.72" y="404.461604" style="stroke: #000000; stroke-width: 3"/>
      </g>
     </g>
     <g id="text_31">
      <!-- 1000 -->
      <g transform="translate(34.82 412.060042) scale(0.2 -0.2)">
       <use xlink:href="#DejaVuSans-31"/>
       <use xlink:href="#DejaVuSans-30" x="63.623047"/>
       <use xlink:href="#DejaVuSans-30" x="127.246094"/>
       <use xlink:href="#DejaVuSans-30" x="190.869141"/>
      </g>
     </g>
    </g>
    <g id="ytick_2">
     <g id="line2d_62">
      <g>
       <use xlink:href="#m803be78417" x="97.72" y="332.333262" style="stroke: #000000; stroke-width: 3"/>
      </g>
     </g>
     <g id="text_32">
      <!-- 1200 -->
      <g transform="translate(34.82 339.9317) scale(0.2 -0.2)">
       <use xlink:href="#DejaVuSans-31"/>
       <use xlink:href="#DejaVuSans-32" x="63.623047"/>
       <use xlink:href="#DejaVuSans-30" x="127.246094"/>
       <use xlink:href="#DejaVuSans-30" x="190.869141"/>
      </g>
     </g>
    </g>
    <g id="ytick_3">
     <g id="line2d_63">
      <g>
       <use xlink:href="#m803be78417" x="97.72" y="260.20492" style="stroke: #000000; stroke-width: 3"/>
      </g>
     </g>
     <g id="text_33">
      <!-- 1400 -->
      <g transform="translate(34.82 267.803357) scale(0.2 -0.2)">
       <use xlink:href="#DejaVuSans-31"/>
       <use xlink:href="#DejaVuSans-34" x="63.623047"/>
       <use xlink:href="#DejaVuSans-30" x="127.246094"/>
       <use xlink:href="#DejaVuSans-30" x="190.869141"/>
      </g>
     </g>
    </g>
    <g id="ytick_4">
     <g id="line2d_64">
      <g>
       <use xlink:href="#m803be78417" x="97.72" y="188.076578" style="stroke: #000000; stroke-width: 3"/>
      </g>
     </g>
     <g id="text_34">
      <!-- 1600 -->
      <g transform="translate(34.82 195.675015) scale(0.2 -0.2)">
       <use xlink:href="#DejaVuSans-31"/>
       <use xlink:href="#DejaVuSans-36" x="63.623047"/>
       <use xlink:href="#DejaVuSans-30" x="127.246094"/>
       <use xlink:href="#DejaVuSans-30" x="190.869141"/>
      </g>
     </g>
    </g>
    <g id="ytick_5">
     <g id="line2d_65">
      <g>
       <use xlink:href="#m803be78417" x="97.72" y="115.948235" style="stroke: #000000; stroke-width: 3"/>
      </g>
     </g>
     <g id="text_35">
      <!-- 1800 -->
      <g transform="translate(34.82 123.546673) scale(0.2 -0.2)">
       <use xlink:href="#DejaVuSans-31"/>
       <use xlink:href="#DejaVuSans-38" x="63.623047"/>
       <use xlink:href="#DejaVuSans-30" x="127.246094"/>
       <use xlink:href="#DejaVuSans-30" x="190.869141"/>
      </g>
     </g>
    </g>
    <g id="ytick_6">
     <g id="line2d_66">
      <g>
       <use xlink:href="#m803be78417" x="97.72" y="43.819893" style="stroke: #000000; stroke-width: 3"/>
      </g>
     </g>
     <g id="text_36">
      <!-- 2000 -->
      <g transform="translate(34.82 51.418331) scale(0.2 -0.2)">
       <use xlink:href="#DejaVuSans-32"/>
       <use xlink:href="#DejaVuSans-30" x="63.623047"/>
       <use xlink:href="#DejaVuSans-30" x="127.246094"/>
       <use xlink:href="#DejaVuSans-30" x="190.869141"/>
      </g>
     </g>
    </g>
    <g id="text_37">
     <!-- Tempo de viagem (seg) -->
     <g transform="translate(26.660625 352.345938) rotate(-90) scale(0.2 -0.2)">
      <defs>
       <path id="DejaVuSans-54" d="M -19 4666 
L 3928 4666 
L 3928 4134 
L 2272 4134 
L 2272 0 
L 1638 0 
L 1638 4134 
L -19 4134 
L -19 4666 
z
" transform="scale(0.015625)"/>
       <path id="DejaVuSans-65" d="M 3597 1894 
L 3597 1613 
L 953 1613 
Q 991 1019 1311 708 
Q 1631 397 2203 397 
Q 2534 397 2845 478 
Q 3156 559 3463 722 
L 3463 178 
Q 3153 47 2828 -22 
Q 2503 -91 2169 -91 
Q 1331 -91 842 396 
Q 353 884 353 1716 
Q 353 2575 817 3079 
Q 1281 3584 2069 3584 
Q 2775 3584 3186 3129 
Q 3597 2675 3597 1894 
z
M 3022 2063 
Q 3016 2534 2758 2815 
Q 2500 3097 2075 3097 
Q 1594 3097 1305 2825 
Q 1016 2553 972 2059 
L 3022 2063 
z
" transform="scale(0.015625)"/>
       <path id="DejaVuSans-6d" d="M 3328 2828 
Q 3544 3216 3844 3400 
Q 4144 3584 4550 3584 
Q 5097 3584 5394 3201 
Q 5691 2819 5691 2113 
L 5691 0 
L 5113 0 
L 5113 2094 
Q 5113 2597 4934 2840 
Q 4756 3084 4391 3084 
Q 3944 3084 3684 2787 
Q 3425 2491 3425 1978 
L 3425 0 
L 2847 0 
L 2847 2094 
Q 2847 2600 2669 2842 
Q 2491 3084 2119 3084 
Q 1678 3084 1418 2786 
Q 1159 2488 1159 1978 
L 1159 0 
L 581 0 
L 581 3500 
L 1159 3500 
L 1159 2956 
Q 1356 3278 1631 3431 
Q 1906 3584 2284 3584 
Q 2666 3584 2933 3390 
Q 3200 3197 3328 2828 
z
" transform="scale(0.015625)"/>
       <path id="DejaVuSans-70" d="M 1159 525 
L 1159 -1331 
L 581 -1331 
L 581 3500 
L 1159 3500 
L 1159 2969 
Q 1341 3281 1617 3432 
Q 1894 3584 2278 3584 
Q 2916 3584 3314 3078 
Q 3713 2572 3713 1747 
Q 3713 922 3314 415 
Q 2916 -91 2278 -91 
Q 1894 -91 1617 61 
Q 1341 213 1159 525 
z
M 3116 1747 
Q 3116 2381 2855 2742 
Q 2594 3103 2138 3103 
Q 1681 3103 1420 2742 
Q 1159 2381 1159 1747 
Q 1159 1113 1420 752 
Q 1681 391 2138 391 
Q 2594 391 2855 752 
Q 3116 1113 3116 1747 
z
" transform="scale(0.015625)"/>
       <path id="DejaVuSans-6f" d="M 1959 3097 
Q 1497 3097 1228 2736 
Q 959 2375 959 1747 
Q 959 1119 1226 758 
Q 1494 397 1959 397 
Q 2419 397 2687 759 
Q 2956 1122 2956 1747 
Q 2956 2369 2687 2733 
Q 2419 3097 1959 3097 
z
M 1959 3584 
Q 2709 3584 3137 3096 
Q 3566 2609 3566 1747 
Q 3566 888 3137 398 
Q 2709 -91 1959 -91 
Q 1206 -91 779 398 
Q 353 888 353 1747 
Q 353 2609 779 3096 
Q 1206 3584 1959 3584 
z
" transform="scale(0.015625)"/>
       <path id="DejaVuSans-20" transform="scale(0.015625)"/>
       <path id="DejaVuSans-64" d="M 2906 2969 
L 2906 4863 
L 3481 4863 
L 3481 0 
L 2906 0 
L 2906 525 
Q 2725 213 2448 61 
Q 2172 -91 1784 -91 
Q 1150 -91 751 415 
Q 353 922 353 1747 
Q 353 2572 751 3078 
Q 1150 3584 1784 3584 
Q 2172 3584 2448 3432 
Q 2725 3281 2906 2969 
z
M 947 1747 
Q 947 1113 1208 752 
Q 1469 391 1925 391 
Q 2381 391 2643 752 
Q 2906 1113 2906 1747 
Q 2906 2381 2643 2742 
Q 2381 3103 1925 3103 
Q 1469 3103 1208 2742 
Q 947 2381 947 1747 
z
" transform="scale(0.015625)"/>
       <path id="DejaVuSans-76" d="M 191 3500 
L 800 3500 
L 1894 563 
L 2988 3500 
L 3597 3500 
L 2284 0 
L 1503 0 
L 191 3500 
z
" transform="scale(0.015625)"/>
       <path id="DejaVuSans-69" d="M 603 3500 
L 1178 3500 
L 1178 0 
L 603 0 
L 603 3500 
z
M 603 4863 
L 1178 4863 
L 1178 4134 
L 603 4134 
L 603 4863 
z
" transform="scale(0.015625)"/>
       <path id="DejaVuSans-61" d="M 2194 1759 
Q 1497 1759 1228 1600 
Q 959 1441 959 1056 
Q 959 750 1161 570 
Q 1363 391 1709 391 
Q 2188 391 2477 730 
Q 2766 1069 2766 1631 
L 2766 1759 
L 2194 1759 
z
M 3341 1997 
L 3341 0 
L 2766 0 
L 2766 531 
Q 2569 213 2275 61 
Q 1981 -91 1556 -91 
Q 1019 -91 701 211 
Q 384 513 384 1019 
Q 384 1609 779 1909 
Q 1175 2209 1959 2209 
L 2766 2209 
L 2766 2266 
Q 2766 2663 2505 2880 
Q 2244 3097 1772 3097 
Q 1472 3097 1187 3025 
Q 903 2953 641 2809 
L 641 3341 
Q 956 3463 1253 3523 
Q 1550 3584 1831 3584 
Q 2591 3584 2966 3190 
Q 3341 2797 3341 1997 
z
" transform="scale(0.015625)"/>
       <path id="DejaVuSans-67" d="M 2906 1791 
Q 2906 2416 2648 2759 
Q 2391 3103 1925 3103 
Q 1463 3103 1205 2759 
Q 947 2416 947 1791 
Q 947 1169 1205 825 
Q 1463 481 1925 481 
Q 2391 481 2648 825 
Q 2906 1169 2906 1791 
z
M 3481 434 
Q 3481 -459 3084 -895 
Q 2688 -1331 1869 -1331 
Q 1566 -1331 1297 -1286 
Q 1028 -1241 775 -1147 
L 775 -588 
Q 1028 -725 1275 -790 
Q 1522 -856 1778 -856 
Q 2344 -856 2625 -561 
Q 2906 -266 2906 331 
L 2906 616 
Q 2728 306 2450 153 
Q 2172 0 1784 0 
Q 1141 0 747 490 
Q 353 981 353 1791 
Q 353 2603 747 3093 
Q 1141 3584 1784 3584 
Q 2172 3584 2450 3431 
Q 2728 3278 2906 2969 
L 2906 3500 
L 3481 3500 
L 3481 434 
z
" transform="scale(0.015625)"/>
       <path id="DejaVuSans-28" d="M 1984 4856 
Q 1566 4138 1362 3434 
Q 1159 2731 1159 2009 
Q 1159 1288 1364 580 
Q 1569 -128 1984 -844 
L 1484 -844 
Q 1016 -109 783 600 
Q 550 1309 550 2009 
Q 550 2706 781 3412 
Q 1013 4119 1484 4856 
L 1984 4856 
z
" transform="scale(0.015625)"/>
       <path id="DejaVuSans-73" d="M 2834 3397 
L 2834 2853 
Q 2591 2978 2328 3040 
Q 2066 3103 1784 3103 
Q 1356 3103 1142 2972 
Q 928 2841 928 2578 
Q 928 2378 1081 2264 
Q 1234 2150 1697 2047 
L 1894 2003 
Q 2506 1872 2764 1633 
Q 3022 1394 3022 966 
Q 3022 478 2636 193 
Q 2250 -91 1575 -91 
Q 1294 -91 989 -36 
Q 684 19 347 128 
L 347 722 
Q 666 556 975 473 
Q 1284 391 1588 391 
Q 1994 391 2212 530 
Q 2431 669 2431 922 
Q 2431 1156 2273 1281 
Q 2116 1406 1581 1522 
L 1381 1569 
Q 847 1681 609 1914 
Q 372 2147 372 2553 
Q 372 3047 722 3315 
Q 1072 3584 1716 3584 
Q 2034 3584 2315 3537 
Q 2597 3491 2834 3397 
z
" transform="scale(0.015625)"/>
       <path id="DejaVuSans-29" d="M 513 4856 
L 1013 4856 
Q 1481 4119 1714 3412 
Q 1947 2706 1947 2009 
Q 1947 1309 1714 600 
Q 1481 -109 1013 -844 
L 513 -844 
Q 928 -128 1133 580 
Q 1338 1288 1338 2009 
Q 1338 2731 1133 3434 
Q 928 4138 513 4856 
z
" transform="scale(0.015625)"/>
      </defs>
      <use xlink:href="#DejaVuSans-54"/>
      <use xlink:href="#DejaVuSans-65" x="44.083984"/>
      <use xlink:href="#DejaVuSans-6d" x="105.607422"/>
      <use xlink:href="#DejaVuSans-70" x="203.019531"/>
      <use xlink:href="#DejaVuSans-6f" x="266.496094"/>
      <use xlink:href="#DejaVuSans-20" x="327.677734"/>
      <use xlink:href="#DejaVuSans-64" x="359.464844"/>
      <use xlink:href="#DejaVuSans-65" x="422.941406"/>
      <use xlink:href="#DejaVuSans-20" x="484.464844"/>
      <use xlink:href="#DejaVuSans-76" x="516.251953"/>
      <use xlink:href="#DejaVuSans-69" x="575.431641"/>
      <use xlink:href="#DejaVuSans-61" x="603.214844"/>
      <use xlink:href="#DejaVuSans-67" x="664.494141"/>
      <use xlink:href="#DejaVuSans-65" x="727.970703"/>
      <use xlink:href="#DejaVuSans-6d" x="789.494141"/>
      <use xlink:href="#DejaVuSans-20" x="886.90625"/>
      <use xlink:href="#DejaVuSans-28" x="918.693359"/>
      <use xlink:href="#DejaVuSans-73" x="957.707031"/>
      <use xlink:href="#DejaVuSans-65" x="1009.806641"/>
      <use xlink:href="#DejaVuSans-67" x="1071.330078"/>
      <use xlink:href="#DejaVuSans-29" x="1134.806641"/>
     </g>
    </g>
   </g>
   <g id="line2d_67">
    <path d="M 190.969091 245.779251 
L 192.810426 332.333262 
L 193.77955 202.502246 
L 195.281692 224.140749 
L 196.493097 375.610267 
L 198.818994 310.694759 
L 199.836574 267.417754 
L 203.713069 245.779251 
L 204.876017 267.417754 
L 209.576268 180.863743 
L 210.884585 267.417754 
L 215.148729 310.694759 
L 216.214766 245.779251 
L 223.192457 245.779251 
L 224.355405 94.309733 
L 225.857547 224.140749 
L 228.038076 245.779251 
L 229.201024 289.056257 
L 232.980607 310.694759 
L 233.998187 310.694759 
L 236.663278 224.140749 
L 237.874682 353.971765 
L 260.697547 332.333262 
L 261.666671 267.417754 
L 261.908952 332.333262 
L 262.878076 310.694759 
L 263.168813 310.694759 
L 264.186393 289.056257 
L 264.234849 245.779251 
L 265.252429 94.309733 
L 265.397798 353.971765 
L 266.318465 115.948235 
L 266.754571 267.417754 
L 267.772151 375.610267 
L 268.54745 180.863743 
L 269.855767 310.694759 
L 271.260997 310.694759 
L 272.278577 267.417754 
L 274.119912 245.779251 
L 279.013987 267.417754 
L 279.110899 159.225241 
L 280.467673 310.694759 
L 284.877186 245.779251 
L 286.040135 289.056257 
L 287.784557 289.056257 
L 288.850594 245.779251 
L 290.207367 224.140749 
L 291.418772 202.502246 
L 292.775545 224.140749 
L 293.308563 180.863743 
L 293.98695 202.502246 
L 294.665336 267.417754 
L 295.392179 202.502246 
L 296.65204 267.417754 
L 296.942777 94.309733 
L 298.444919 267.417754 
L 299.365587 245.779251 
L 300.528535 289.056257 
L 305.664891 289.056257 
L 306.730927 310.694759 
L 309.105281 245.779251 
L 329.796074 310.694759 
L 330.426004 289.056257 
L 331.49204 180.863743 
L 331.782777 353.971765 
L 332.703445 267.417754 
L 332.800357 245.779251 
L 333.963306 267.417754 
L 334.108674 310.694759 
L 335.126254 353.971765 
L 335.368535 245.779251 
L 336.337659 310.694759 
L 337.355239 332.333262 
L 338.372819 245.779251 
L 339.535768 310.694759 
L 340.698716 159.225241 
L 342.05549 289.056257 
L 344.042193 267.417754 
L 345.156686 289.056257 
L 346.998021 51.032727 
L 348.597075 159.225241 
L 349.178549 245.779251 
L 350.341498 289.056257 
L 351.407534 51.032727 
L 353.006588 267.417754 
L 354.751011 310.694759 
L 355.768591 224.140749 
L 357.513014 224.140749 
L 358.724419 267.417754 
L 359.935823 289.056257 
L 361.00186 202.502246 
L 362.358633 224.140749 
L 363.570038 51.032727 
L 364.539161 245.779251 
L 365.217548 115.948235 
L 366.671234 267.417754 
L 366.671234 51.032727 
L 368.270288 245.779251 
L 369.094043 224.140749 
L 370.305448 332.333262 
L 372.776714 224.140749 
L 375.538716 310.694759 
L 376.556296 332.333262 
L 378.833737 267.417754 
L 379.94823 353.971765 
L 381.305003 375.610267 
L 399.330705 202.502246 
L 399.621443 51.032727 
L 401.220497 245.779251 
L 401.511234 310.694759 
L 402.528814 289.056257 
L 402.57727 245.779251 
L 403.740219 137.586738 
L 403.885587 310.694759 
L 404.903167 289.056257 
L 405.145448 267.417754 
L 406.211484 289.056257 
L 406.25994 310.694759 
L 407.27752 310.694759 
L 408.2951 245.779251 
L 409.458049 289.056257 
L 410.524085 202.502246 
L 411.783946 245.779251 
L 413.867562 289.056257 
L 414.933598 289.056257 
L 418.567813 245.779251 
L 418.955462 267.417754 
L 420.069954 289.056257 
L 422.783501 245.779251 
L 424.431012 267.417754 
L 425.545504 245.779251 
L 427.338383 245.779251 
L 428.501331 267.417754 
L 430.924141 224.140749 
L 432.184002 245.779251 
L 432.862388 137.586738 
L 433.34695 159.225241 
L 434.267618 289.056257 
L 434.994461 115.948235 
L 436.448146 267.417754 
L 438.192569 267.417754 
L 438.774044 180.863743 
L 440.082361 310.694759 
L 441.342222 224.140749 
L 442.553626 245.779251 
L 445.315629 310.694759 
L 446.333209 289.056257 
L 448.707562 310.694759 
L 449.725142 375.610267 
L 451.081916 332.333262 
L 469.252987 245.779251 
L 470.076742 353.971765 
L 470.99741 224.140749 
L 471.288147 310.694759 
L 472.305727 224.140749 
L 473.517131 289.056257 
L 473.759412 310.694759 
L 474.776992 332.333262 
L 475.988397 289.056257 
L 476.230678 289.056257 
L 477.054433 353.971765 
L 477.73282 115.948235 
L 479.186506 289.056257 
L 480.688647 375.610267 
L 481.560859 267.417754 
L 483.499106 224.140749 
L 484.710511 180.863743 
L 486.89104 159.225241 
L 488.732375 245.779251 
L 489.895323 310.694759 
L 491.155184 180.863743 
L 492.463501 332.333262 
L 495.322417 224.140749 
L 497.163752 289.056257 
L 498.229788 245.779251 
L 499.538105 289.056257 
L 500.604141 202.502246 
L 502.009371 245.779251 
L 502.736214 245.779251 
L 503.172319 202.502246 
L 503.899162 267.417754 
L 504.771374 202.502246 
L 506.031234 245.779251 
L 507.87257 267.417754 
L 508.696325 267.417754 
L 509.810817 332.333262 
L 511.070678 159.225241 
L 512.427451 245.779251 
L 514.99563 267.417754 
L 516.110122 332.333262 
L 518.387563 267.417754 
L 519.550511 397.24877 
L 520.858828 332.333262 
L 539.126812 310.694759 
L 539.27218 115.948235 
L 540.725866 289.056257 
L 540.968147 289.056257 
L 541.791902 94.309733 
L 542.034183 289.056257 
L 543.294044 310.694759 
L 543.487869 267.417754 
L 544.311624 51.032727 
L 544.602361 289.056257 
L 545.668397 224.140749 
L 545.910678 267.417754 
L 546.879802 353.971765 
L 547.461276 115.948235 
L 548.914962 224.140749 
L 550.077911 180.863743 
L 551.386228 310.694759 
L 553.276019 267.417754 
L 554.390512 289.056257 
L 556.425671 51.032727 
L 558.557744 289.056257 
L 559.62378 289.056257 
L 562.28887 310.694759 
L 563.936381 245.779251 
L 566.892208 245.779251 
L 569.315018 289.056257 
L 570.381054 224.140749 
L 571.737827 289.056257 
L 572.416214 180.863743 
L 572.803863 224.140749 
L 573.724531 202.502246 
L 574.49983 137.586738 
L 575.90506 289.056257 
L 576.341165 202.502246 
L 577.601026 289.056257 
L 578.327869 137.586738 
L 579.733099 289.056257 
L 580.944503 224.140749 
L 582.155908 224.140749 
L 584.820998 310.694759 
L 585.838578 332.333262 
L 589.230512 332.333262 
L 590.635741 375.610267 
L 609.72748 267.417754 
L 611.665727 375.610267 
L 612.537939 289.056257 
L 614.524643 245.779251 
L 615.687591 332.333262 
L 618.49805 310.694759 
L 621.308509 310.694759 
L 626.057216 289.056257 
L 627.123252 267.417754 
L 629.013043 267.417754 
L 630.127536 310.694759 
L 631.871958 267.417754 
L 632.986451 310.694759 
L 637.735157 267.417754 
L 638.84965 289.056257 
L 641.611652 202.502246 
L 643.5499 267.417754 
L 644.664392 245.779251 
L 647.377939 289.056257 
L 652.126646 267.417754 
L 653.241138 353.971765 
L 656.100053 332.333262 
L 659.055881 353.971765 
L 659.976548 72.67123 
L 681.394184 289.056257 
L 682.46022 267.417754 
L 683.86545 289.056257 
L 684.931486 267.417754 
L 687.257383 224.140749 
L 688.468788 289.056257 
L 692.296827 332.333262 
L 693.26595 267.417754 
L 698.014657 224.140749 
L 699.226062 310.694759 
L 703.490206 310.694759 
L 704.507786 245.779251 
L 707.075964 180.863743 
L 708.384281 202.502246 
L 710.17716 159.225241 
L 711.533934 245.779251 
L 713.132988 310.694759 
L 714.150568 202.502246 
L 716.428009 267.417754 
L 717.542501 332.333262 
L 722.485033 332.333262 
L 724.956298 180.863743 
L 726.264615 375.610267 
L 728.929706 267.417754 
L 748.409094 267.417754 
L 748.554463 72.67123 
L 750.105061 245.779251 
L 750.444254 375.610267 
L 751.316465 289.056257 
L 751.364921 202.502246 
L 752.624782 267.417754 
L 752.770151 267.417754 
L 753.884643 332.333262 
L 754.030012 245.779251 
L 755.19296 245.779251 
L 756.258997 332.333262 
L 756.792015 137.586738 
L 758.197244 289.056257 
L 759.554017 245.779251 
L 760.716966 289.056257 
L 762.655214 267.417754 
L 767.258552 202.502246 
L 767.936938 224.140749 
L 769.148343 310.694759 
L 773.267119 245.779251 
L 774.430068 289.056257 
L 776.271403 245.779251 
L 777.434351 245.779251 
L 778.694212 310.694759 
L 779.711792 202.502246 
L 781.068566 245.779251 
L 781.843865 180.863743 
L 782.231514 267.417754 
L 783.152182 267.417754 
L 783.830568 94.309733 
L 785.33271 224.140749 
L 785.478079 159.225241 
L 786.834852 289.056257 
L 787.707064 180.863743 
L 789.015381 310.694759 
L 790.517523 202.502246 
L 791.777383 289.056257 
L 794.200193 353.971765 
L 795.120861 310.694759 
L 797.495214 289.056257 
L 798.56125 332.333262 
L 800.014936 353.971765 
L 818.282919 289.056257 
L 818.282919 51.032727 
L 820.124254 267.417754 
L 821.093378 202.502246 
L 821.238747 310.694759 
L 822.59552 332.333262 
L 823.564644 332.333262 
L 824.872961 289.056257 
L 825.066786 289.056257 
L 825.938997 310.694759 
L 826.811208 224.140749 
L 828.022613 289.056257 
L 829.33093 267.417754 
L 830.445423 289.056257 
L 832.432126 267.417754 
L 833.546619 289.056257 
L 836.017884 224.140749 
L 837.229289 245.779251 
L 837.616939 245.779251 
L 838.779887 289.056257 
L 841.396521 332.333262 
L 843.092488 224.140749 
L 844.303893 202.502246 
L 845.951403 245.779251 
L 847.114352 224.140749 
L 848.422669 310.694759 
L 849.440249 224.140749 
L 850.845478 202.502246 
L 851.523865 115.948235 
L 852.105339 224.140749 
L 852.977551 202.502246 
L 853.655937 137.586738 
L 855.061167 267.417754 
L 855.351904 180.863743 
L 856.660221 267.417754 
L 857.483976 202.502246 
L 858.743837 310.694759 
L 860.100611 180.863743 
L 861.408928 310.694759 
L 863.880193 289.056257 
L 864.946229 332.333262 
L 867.320583 267.417754 
L 868.435075 332.333262 
L 869.743392 353.971765 
L 888.011376 289.056257 
L 889.658886 224.140749 
L 889.901167 267.417754 
L 890.870291 202.502246 
L 891.015659 289.056257 
L 892.130152 289.056257 
L 892.372433 353.971765 
L 893.2931 310.694759 
L 894.69833 310.694759 
L 894.989067 267.417754 
L 895.71591 332.333262 
L 896.491209 159.225241 
L 897.847982 310.694759 
L 899.059387 267.417754 
L 900.173879 310.694759 
L 902.209039 267.417754 
L 903.323531 310.694759 
L 905.697885 245.779251 
L 906.860833 224.140749 
L 907.345395 310.694759 
L 908.362975 310.694759 
L 911.173434 245.779251 
L 912.869401 267.417754 
L 913.983893 224.140749 
L 915.825228 289.056257 
L 916.891265 267.417754 
L 918.199582 245.779251 
L 919.36253 245.779251 
L 920.622391 224.140749 
L 921.833796 224.140749 
L 922.657551 267.417754 
L 923.481306 115.948235 
L 924.886536 72.67123 
L 924.934992 310.694759 
L 926.437134 310.694759 
L 927.406258 224.140749 
L 928.617662 310.694759 
L 929.877523 245.779251 
L 931.040472 245.779251 
L 933.754018 310.694759 
L 934.771598 310.694759 
L 937.145952 289.056257 
L 938.211988 353.971765 
L 939.520305 332.333262 
L 957.836745 310.694759 
L 958.466675 353.971765 
L 959.387343 245.779251 
L 959.823448 353.971765 
L 960.550291 137.586738 
L 960.744116 310.694759 
L 961.810152 159.225241 
L 961.955521 289.056257 
L 963.021557 72.67123 
L 963.166925 332.333262 
L 964.523699 332.333262 
L 964.572155 180.863743 
L 965.492823 332.333262 
L 966.461946 245.779251 
L 967.624895 289.056257 
L 969.030124 310.694759 
L 970.047704 289.056257 
L 971.937496 267.417754 
L 973.051988 289.056257 
L 975.620166 267.417754 
L 976.734658 224.140749 
L 976.928483 245.779251 
L 978.091432 332.333262 
L 982.646314 224.140749 
L 983.857718 245.779251 
L 985.553685 310.694759 
L 988.267232 418.887273 
L 989.042531 202.502246 
L 990.399304 245.779251 
L 991.126147 115.948235 
L 991.562252 202.502246 
L 992.579832 224.140749 
L 993.258219 245.779251 
L 994.421168 224.140749 
L 994.857273 72.67123 
L 996.407871 245.779251 
L 996.940889 94.309733 
L 998.443031 310.694759 
L 999.60598 245.779251 
L 1000.768928 267.417754 
L 1003.482475 310.694759 
L 1004.500055 332.333262 
L 1006.874408 310.694759 
L 1007.940444 375.610267 
L 1009.297218 310.694759 
L 1027.516745 267.417754 
L 1028.243588 353.971765 
L 1029.164255 245.779251 
L 1029.648817 353.971765 
L 1030.37566 180.863743 
L 1030.569485 310.694759 
L 1031.732433 289.056257 
L 1031.926258 289.056257 
L 1032.846926 94.309733 
L 1032.992294 289.056257 
L 1034.203699 289.056257 
L 1034.349068 267.417754 
L 1035.269735 310.694759 
L 1036.09349 180.863743 
L 1037.401808 289.056257 
L 1038.564756 202.502246 
L 1039.824617 289.056257 
L 1041.811321 310.694759 
L 1042.828901 245.779251 
L 1045.009429 115.948235 
L 1046.463115 245.779251 
L 1046.802308 224.140749 
L 1048.013713 353.971765 
L 1049.225118 137.586738 
L 1050.630347 245.779251 
L 1052.423226 180.863743 
L 1053.731543 224.140749 
L 1055.379054 289.056257 
L 1056.44509 267.417754 
L 1057.753407 245.779251 
L 1058.916356 224.140749 
L 1060.176217 289.056257 
L 1060.660779 51.032727 
L 1061.242253 224.140749 
L 1062.259833 267.417754 
L 1062.938219 94.309733 
L 1064.440361 245.779251 
L 1064.682642 94.309733 
L 1066.184784 289.056257 
L 1067.444645 202.502246 
L 1068.704506 332.333262 
L 1069.382893 245.779251 
L 1070.545841 224.140749 
L 1073.259388 289.056257 
L 1074.325424 353.971765 
L 1076.748233 289.056257 
L 1077.81427 375.610267 
L 1079.122587 353.971765 
L 1098.117413 289.056257 
L 1101.024784 289.056257 
L 1103.011488 159.225241 
L 1104.368261 310.694759 
L 1105.821947 267.417754 
L 1106.936439 310.694759 
L 1108.680862 224.140749 
L 1109.892267 310.694759 
L 1114.447149 245.779251 
L 1115.610097 224.140749 
L 1118.517469 289.056257 
L 1119.728873 51.032727 
L 1121.327928 180.863743 
L 1127.239583 267.417754 
L 1129.080918 289.056257 
L 1130.146954 245.779251 
L 1131.746008 202.502246 
L 1133.005869 202.502246 
L 1134.992573 353.971765 
L 1135.913241 310.694759 
L 1140.710403 289.056257 
L 1141.77644 289.056257 
L 1143.569319 245.779251 
L 1144.732267 289.056257 
L 1146.573602 332.333262 
L 1147.542726 332.333262 
L 1148.51185 94.309733 
L 1168.08815 289.056257 
L 1169.687205 289.056257 
L 1170.753241 224.140749 
L 1172.110014 289.056257 
L 1173.17605 267.417754 
L 1175.647316 310.694759 
L 1176.664896 267.417754 
L 1180.68676 310.694759 
L 1181.70434 289.056257 
L 1186.549959 267.417754 
L 1187.664451 289.056257 
L 1191.880139 224.140749 
L 1193.091544 245.779251 
L 1195.902003 353.971765 
L 1196.822671 224.140749 
L 1199.003199 310.694759 
L 1200.020779 245.779251 
L 1201.619834 267.417754 
L 1202.734326 245.779251 
L 1204.866398 245.779251 
L 1206.029347 289.056257 
L 1209.760473 267.417754 
L 1210.874966 332.333262 
L 1213.297775 137.586738 
L 1214.703005 353.971765 
L 1217.707288 375.610267 
L 1238.54345 224.140749 
L 1238.785731 310.694759 
L 1239.754855 180.863743 
L 1239.803311 310.694759 
L 1241.063172 267.417754 
L 1241.063172 245.779251 
L 1242.177664 115.948235 
L 1242.22612 310.694759 
L 1243.534437 289.056257 
L 1243.63135 245.779251 
L 1244.600474 353.971765 
L 1245.27886 115.948235 
L 1246.732546 332.333262 
L 1247.895494 245.779251 
L 1249.058443 267.417754 
L 1251.190515 353.971765 
L 1255.745397 267.417754 
L 1255.987678 202.502246 
L 1257.247539 310.694759 
L 1261.753965 224.140749 
L 1262.965369 267.417754 
L 1264.709792 289.056257 
L 1265.775828 224.140749 
L 1267.132602 267.417754 
L 1268.247094 224.140749 
L 1269.555411 224.140749 
L 1270.233798 202.502246 
L 1270.766816 202.502246 
L 1271.493659 289.056257 
L 1272.36587 224.140749 
L 1273.577275 202.502246 
L 1273.819556 180.863743 
L 1275.176329 289.056257 
L 1276.096997 159.225241 
L 1277.45377 310.694759 
L 1279.925036 289.056257 
L 1282.590126 332.333262 
L 1283.55925 310.694759 
L 1286.030515 289.056257 
L 1287.096552 375.610267 
L 1288.453325 353.971765 
L 1306.769765 289.056257 
L 1307.351239 353.971765 
L 1308.271906 267.417754 
L 1308.6111 310.694759 
L 1309.62868 267.417754 
L 1309.62868 224.140749 
L 1310.840084 289.056257 
L 1310.985453 267.417754 
L 1311.906121 72.67123 
L 1312.099945 332.333262 
L 1313.359806 353.971765 
L 1313.456719 289.056257 
L 1314.280474 353.971765 
L 1315.201142 202.502246 
L 1316.461002 289.056257 
L 1317.76932 267.417754 
L 1318.883812 289.056257 
L 1320.918972 310.694759 
L 1321.936552 289.056257 
L 1325.473854 224.140749 
L 1325.861503 224.140749 
L 1327.072908 310.694759 
L 1328.381225 159.225241 
L 1329.737998 267.417754 
L 1331.530877 267.417754 
L 1332.64537 224.140749 
L 1334.486705 245.779251 
L 1335.649653 224.140749 
L 1336.909514 267.417754 
L 1338.024007 245.779251 
L 1339.429236 310.694759 
L 1339.913798 137.586738 
L 1340.446816 245.779251 
L 1341.319028 289.056257 
L 1342.094327 115.948235 
L 1343.548012 245.779251 
L 1343.644925 180.863743 
L 1344.953242 310.694759 
L 1346.067734 180.863743 
L 1347.376051 310.694759 
L 1349.701948 267.417754 
L 1352.318583 267.417754 
L 1353.433075 353.971765 
L 1355.758972 245.779251 
L 1356.921921 353.971765 
L 1358.230238 332.333262 
L 1376.449765 267.417754 
L 1377.128152 353.971765 
L 1378.048819 224.140749 
L 1378.339556 310.694759 
L 1379.260224 159.225241 
L 1379.357136 289.056257 
L 1380.616997 289.056257 
L 1380.762366 332.333262 
L 1381.683033 51.032727 
L 1381.73149 353.971765 
L 1383.282088 224.140749 
L 1384.154299 353.971765 
L 1384.929598 159.225241 
L 1386.286371 332.333262 
L 1387.546232 224.140749 
L 1388.757637 310.694759 
L 1390.695885 289.056257 
L 1391.761921 289.056257 
L 1394.087818 224.140749 
L 1395.299223 245.779251 
L 1395.735328 245.779251 
L 1396.898277 332.333262 
L 1398.109682 137.586738 
L 1399.514911 245.779251 
L 1401.162422 202.502246 
L 1402.422282 224.140749 
L 1405.426566 224.140749 
L 1406.686427 332.333262 
L 1407.655551 202.502246 
L 1409.012324 202.502246 
L 1409.690711 159.225241 
L 1410.272185 267.417754 
L 1411.047484 289.056257 
L 1411.919696 180.863743 
L 1413.567206 267.417754 
L 1414.681698 310.694759 
L 1415.796191 224.140749 
L 1417.007595 332.333262 
L 1418.122088 137.586738 
L 1419.527317 267.417754 
L 1422.047039 245.779251 
L 1423.209988 310.694759 
L 1425.584341 310.694759 
L 1426.601921 332.333262 
L 1446.32359 332.333262 
L 1446.953521 353.971765 
L 1447.874188 267.417754 
L 1448.164925 332.333262 
L 1449.085593 202.502246 
L 1449.134049 310.694759 
L 1450.345454 267.417754 
L 1450.539279 310.694759 
L 1451.556859 353.971765 
L 1451.847596 267.417754 
L 1452.913632 332.333262 
L 1452.962088 289.056257 
L 1453.882756 310.694759 
L 1454.561142 94.309733 
L 1456.063284 310.694759 
L 1457.323145 267.417754 
L 1458.437637 289.056257 
L 1460.521254 332.333262 
L 1461.490377 289.056257 
L 1463.816274 159.225241 
L 1465.463785 289.056257 
L 1466.529821 332.333262 
L 1467.789682 51.032727 
L 1469.388736 289.056257 
L 1470.98779 245.779251 
L 1472.199195 224.140749 
L 1473.992074 289.056257 
L 1475.05811 245.779251 
L 1476.414884 267.417754 
L 1477.529376 267.417754 
L 1478.837693 202.502246 
L 1479.51608 245.779251 
L 1480.097554 202.502246 
L 1480.679028 310.694759 
L 1481.696608 245.779251 
L 1482.859557 245.779251 
L 1483.344119 202.502246 
L 1484.60398 310.694759 
L 1485.476191 224.140749 
L 1486.687596 289.056257 
L 1489.207318 245.779251 
L 1491.920864 267.417754 
L 1493.035357 332.333262 
L 1495.361254 310.694759 
L 1496.378834 353.971765 
L 1497.735607 332.333262 
L 1516.100503 310.694759 
L 1516.681977 332.333262 
L 1517.651101 224.140749 
L 1517.941838 289.056257 
L 1518.862506 159.225241 
L 1519.007874 289.056257 
L 1520.219279 289.056257 
L 1520.316191 245.779251 
L 1521.285315 72.67123 
L 1521.47914 310.694759 
L 1522.835913 310.694759 
L 1523.708125 332.333262 
L 1524.434967 159.225241 
L 1525.791741 289.056257 
L 1527.051602 224.140749 
L 1528.263006 289.056257 
L 1530.24971 332.333262 
L 1531.218834 245.779251 
L 1534.901504 202.502246 
L 1535.289154 267.417754 
L 1536.403646 310.694759 
L 1537.518139 51.032727 
L 1539.117193 267.417754 
L 1540.910072 267.417754 
L 1542.024564 224.140749 
L 1543.720531 267.417754 
L 1544.835023 224.140749 
L 1546.191796 267.417754 
L 1548.56615 267.417754 
L 1549.292993 115.948235 
L 1549.680642 224.140749 
L 1550.746678 289.056257 
L 1551.425065 202.502246 
L 1552.684926 224.140749 
L 1553.121032 202.502246 
L 1554.380892 332.333262 
L 1555.446929 289.056257 
L 1556.512965 289.056257 
L 1558.98423 224.140749 
L 1561.697777 310.694759 
L 1562.715357 310.694759 
L 1565.138167 332.333262 
L 1566.10729 353.971765 
L 1567.560976 353.971765 
L 1586.652715 289.056257 
L 1589.463174 289.056257 
L 1591.449877 267.417754 
L 1592.56437 353.971765 
L 1594.163424 202.502246 
L 1595.423285 310.694759 
L 1597.167708 332.333262 
L 1598.136832 267.417754 
L 1603.079363 289.056257 
L 1604.145399 245.779251 
L 1605.986734 310.694759 
L 1607.004314 310.694759 
L 1608.845649 332.333262 
L 1609.814773 289.056257 
L 1614.466567 202.502246 
L 1615.726428 245.779251 
L 1616.937833 72.67123 
L 1618.488431 245.779251 
L 1620.426679 289.056257 
L 1621.492715 267.417754 
L 1624.35163 310.694759 
L 1629.100337 289.056257 
L 1630.214829 353.971765 
L 1632.928376 332.333262 
L 1635.884203 310.694759 
L 1636.901783 94.309733 
L 1656.429627 224.140749 
L 1658.270963 245.779251 
L 1659.433911 289.056257 
L 1662.341282 72.67123 
L 1664.231074 267.417754 
L 1665.345566 310.694759 
L 1669.415886 375.610267 
L 1670.288098 267.417754 
L 1681.529933 267.417754 
L 1684.340392 332.333262 
L 1685.309516 180.863743 
L 1687.490045 310.694759 
L 1688.507625 245.779251 
L 1690.155135 353.971765 
L 1691.075803 180.863743 
L 1693.4017 310.694759 
L 1694.41928 245.779251 
L 1698.198863 310.694759 
L 1699.216443 332.333262 
L 1702.220726 418.887273 
L 1702.996025 397.24877 
L 1706.145678 375.610267 
L 1726.012715 353.971765 
L 1726.933383 267.417754 
L 1727.321032 353.971765 
L 1728.047875 72.67123 
L 1728.2417 310.694759 
L 1729.598473 267.417754 
L 1729.64693 289.056257 
L 1730.712966 332.333262 
L 1730.712966 94.309733 
L 1731.972827 310.694759 
L 1732.215108 310.694759 
L 1732.990407 332.333262 
L 1734.104899 332.333262 
L 1735.074023 267.417754 
L 1736.479252 310.694759 
L 1739.580448 310.694759 
L 1744.232243 245.779251 
L 1744.571436 245.779251 
L 1745.734384 310.694759 
L 1750.192354 267.417754 
L 1751.306846 245.779251 
L 1753.099725 310.694759 
L 1754.117305 202.502246 
L 1755.522535 224.140749 
L 1756.733939 224.140749 
L 1757.9938 267.417754 
L 1758.478362 72.67123 
L 1759.108293 245.779251 
L 1760.02896 267.417754 
L 1760.804259 245.779251 
L 1761.967208 224.140749 
L 1762.403314 267.417754 
L 1763.517806 310.694759 
L 1764.777667 289.056257 
L 1765.843703 332.333262 
L 1768.363425 245.779251 
L 1771.076972 310.694759 
L 1772.094552 332.333262 
L 1774.468905 289.056257 
L 1775.534941 353.971765 
L 1776.891714 375.610267 
L 1795.111241 289.056257 
L 1795.838084 332.333262 
L 1796.807208 267.417754 
L 1797.146401 375.610267 
L 1797.9217 180.863743 
L 1798.018613 267.417754 
L 1799.230018 94.309733 
L 1799.375386 267.417754 
L 1800.489878 289.056257 
L 1800.732159 224.140749 
L 1801.798196 310.694759 
L 1801.943564 289.056257 
L 1802.815776 375.610267 
L 1803.591075 202.502246 
L 1804.850936 332.333262 
L 1806.06234 180.863743 
L 1807.370657 289.056257 
L 1809.405817 310.694759 
L 1810.423397 267.417754 
L 1812.603926 137.586738 
L 1814.009155 224.140749 
L 1814.20298 180.863743 
L 1815.511297 310.694759 
L 1816.819614 115.948235 
L 1818.2733 289.056257 
L 1819.969267 289.056257 
L 1821.035303 245.779251 
L 1822.925094 289.056257 
L 1823.99113 224.140749 
L 1825.250991 159.225241 
L 1826.607765 289.056257 
L 1827.722257 159.225241 
L 1828.400644 159.225241 
L 1829.07903 180.863743 
L 1829.757417 289.056257 
L 1830.581172 180.863743 
L 1831.889489 224.140749 
L 1832.180226 202.502246 
L 1833.440087 289.056257 
L 1834.360755 180.863743 
L 1835.669072 332.333262 
L 1836.686652 137.586738 
L 1838.091881 289.056257 
L 1840.708516 267.417754 
L 1841.823008 332.333262 
L 1844.245818 310.694759 
L 1845.263398 332.333262 
L 1846.717083 375.610267 
L 1864.93661 289.056257 
L 1865.614997 332.333262 
L 1866.923314 353.971765 
L 1867.843982 353.971765 
L 1869.249211 289.056257 
L 1870.315247 289.056257 
L 1870.509072 245.779251 
L 1871.623565 332.333262 
L 1871.672021 289.056257 
L 1872.592688 353.971765 
L 1873.222619 115.948235 
L 1874.676304 310.694759 
L 1875.936165 180.863743 
L 1877.244483 245.779251 
L 1879.18273 289.056257 
L 1880.248766 267.417754 
L 1883.88298 202.502246 
L 1884.173718 245.779251 
L 1885.336666 310.694759 
L 1886.548071 94.309733 
L 1888.050213 332.333262 
L 1889.794636 289.056257 
L 1890.860672 267.417754 
L 1892.605095 267.417754 
L 1893.719587 202.502246 
L 1895.124816 310.694759 
L 1896.142396 224.140749 
L 1897.596082 224.140749 
L 1898.807487 267.417754 
L 1899.340505 267.417754 
L 1900.358085 245.779251 
L 1901.521033 202.502246 
L 1903.362369 332.333262 
L 1904.379949 267.417754 
L 1905.494441 310.694759 
L 1906.89967 267.417754 
L 1908.014163 289.056257 
L 1910.582341 267.417754 
L 1911.696833 353.971765 
L 1914.071186 289.056257 
L 1915.137223 353.971765 
L 1916.493996 397.24877 
L 1934.713523 310.694759 
L 1935.39191 375.610267 
L 1936.312577 245.779251 
L 1936.603315 332.333262 
L 1937.475526 180.863743 
L 1937.572438 310.694759 
L 1938.783843 267.417754 
L 1938.977668 245.779251 
L 1940.140616 332.333262 
L 1940.237529 245.779251 
L 1941.352021 332.333262 
L 1941.400477 289.056257 
L 1942.321145 353.971765 
L 1942.999532 94.309733 
L 1944.501673 310.694759 
L 1945.470797 94.309733 
L 1946.972939 310.694759 
L 1948.86273 310.694759 
L 1949.88031 267.417754 
L 1952.206208 202.502246 
L 1953.466068 267.417754 
L 1953.902174 245.779251 
L 1955.065123 289.056257 
L 1956.324984 94.309733 
L 1957.827126 245.779251 
L 1959.523092 267.417754 
L 1960.637585 224.140749 
L 1963.544956 224.140749 
L 1964.853273 310.694759 
L 1965.870853 202.502246 
L 1967.227626 202.502246 
L 1967.760644 115.948235 
L 1969.21433 289.056257 
L 1970.134998 267.417754 
L 1971.24949 245.779251 
L 1971.87942 224.140749 
L 1973.090825 289.056257 
L 1974.011493 267.417754 
L 1975.125985 332.333262 
L 1976.628127 224.140749 
L 1977.839532 267.417754 
L 1980.40771 310.694759 
L 1981.42529 310.694759 
L 1983.702731 245.779251 
L 1984.865679 332.333262 
L 1986.222453 353.971765 
L 2004.44198 267.417754 
L 2004.490436 51.032727 
L 2006.08949 289.056257 
L 2006.428684 310.694759 
L 2007.155526 137.586738 
L 2007.446263 332.333262 
L 2008.560756 94.309733 
L 2008.706124 267.417754 
L 2009.820617 72.67123 
L 2010.062898 289.056257 
L 2011.371215 224.140749 
L 2012.58262 180.863743 
L 2013.067181 267.417754 
L 2014.181674 267.417754 
L 2015.393079 159.225241 
L 2016.749852 310.694759 
L 2018.688099 267.417754 
L 2019.802592 267.417754 
L 2023.242981 245.779251 
L 2023.775999 289.056257 
L 2024.842035 289.056257 
L 2026.198809 115.948235 
L 2027.652494 267.417754 
L 2029.300005 224.140749 
L 2030.51141 224.140749 
L 2032.207376 267.417754 
L 2033.321869 202.502246 
L 2034.630186 310.694759 
L 2035.647766 224.140749 
L 2037.101451 289.056257 
L 2037.634469 72.67123 
L 2038.167488 245.779251 
L 2039.185068 289.056257 
L 2039.766542 115.948235 
L 2041.220228 245.779251 
L 2041.607877 202.502246 
L 2042.867738 289.056257 
L 2043.691493 159.225241 
L 2045.048266 332.333262 
L 2047.471076 245.779251 
L 2050.136166 289.056257 
L 2051.202203 310.694759 
L 2053.576556 289.056257 
L 2054.642592 353.971765 
L 2055.950909 332.333262 
L 2055.950909 332.333262 
" clip-path="url(#pf9bbb66928)" style="fill: none; stroke: #1f77b4; stroke-width: 1.5; stroke-linecap: square"/>
   </g>
   <g id="patch_3">
    <path d="M 97.72 437.28 
L 97.72 32.64 
" style="fill: none; stroke: #000000; stroke-width: 0.8; stroke-linejoin: miter; stroke-linecap: square"/>
   </g>
   <g id="patch_4">
    <path d="M 2149.2 437.28 
L 2149.2 32.64 
" style="fill: none; stroke: #000000; stroke-width: 0.8; stroke-linejoin: miter; stroke-linecap: square"/>
   </g>
   <g id="patch_5">
    <path d="M 97.72 437.28 
L 2149.2 437.28 
" style="fill: none; stroke: #000000; stroke-width: 0.8; stroke-linejoin: miter; stroke-linecap: square"/>
   </g>
   <g id="patch_6">
    <path d="M 97.72 32.64 
L 2149.2 32.64 
" style="fill: none; stroke: #000000; stroke-width: 0.8; stroke-linejoin: miter; stroke-linecap: square"/>
   </g>
   <g id="text_38">
    <!-- Linha 271 -->
    <g transform="translate(1074.04125 26.64) scale(0.2 -0.2)">
     <defs>
      <path id="DejaVuSans-4c" d="M 628 4666 
L 1259 4666 
L 1259 531 
L 3531 531 
L 3531 0 
L 628 0 
L 628 4666 
z
" transform="scale(0.015625)"/>
      <path id="DejaVuSans-6e" d="M 3513 2113 
L 3513 0 
L 2938 0 
L 2938 2094 
Q 2938 2591 2744 2837 
Q 2550 3084 2163 3084 
Q 1697 3084 1428 2787 
Q 1159 2491 1159 1978 
L 1159 0 
L 581 0 
L 581 3500 
L 1159 3500 
L 1159 2956 
Q 1366 3272 1645 3428 
Q 1925 3584 2291 3584 
Q 2894 3584 3203 3211 
Q 3513 2838 3513 2113 
z
" transform="scale(0.015625)"/>
      <path id="DejaVuSans-68" d="M 3513 2113 
L 3513 0 
L 2938 0 
L 2938 2094 
Q 2938 2591 2744 2837 
Q 2550 3084 2163 3084 
Q 1697 3084 1428 2787 
Q 1159 2491 1159 1978 
L 1159 0 
L 581 0 
L 581 4863 
L 1159 4863 
L 1159 2956 
Q 1366 3272 1645 3428 
Q 1925 3584 2291 3584 
Q 2894 3584 3203 3211 
Q 3513 2838 3513 2113 
z
" transform="scale(0.015625)"/>
     </defs>
     <use xlink:href="#DejaVuSans-4c"/>
     <use xlink:href="#DejaVuSans-69" x="55.712891"/>
     <use xlink:href="#DejaVuSans-6e" x="83.496094"/>
     <use xlink:href="#DejaVuSans-68" x="146.875"/>
     <use xlink:href="#DejaVuSans-61" x="210.253906"/>
     <use xlink:href="#DejaVuSans-20" x="271.533203"/>
     <use xlink:href="#DejaVuSans-32" x="303.320312"/>
     <use xlink:href="#DejaVuSans-37" x="366.943359"/>
     <use xlink:href="#DejaVuSans-31" x="430.566406"/>
    </g>
   </g>
  </g>
 </g>
 <defs>
  <clipPath id="pf9bbb66928">
   <rect x="97.72" y="32.64" width="2051.48" height="404.64"/>
  </clipPath>
 </defs>
</svg>
