<?xml version="1.0" encoding="utf-8" standalone="no"?>
<!DOCTYPE svg PUBLIC "-//W3C//DTD SVG 1.1//EN"
  "http://www.w3.org/Graphics/SVG/1.1/DTD/svg11.dtd">
<svg xmlns:xlink="http://www.w3.org/1999/xlink" width="2160pt" height="576pt" viewBox="0 0 2160 576" xmlns="http://www.w3.org/2000/svg" version="1.1">
 <metadata>
  <rdf:RDF xmlns:dc="http://purl.org/dc/elements/1.1/" xmlns:cc="http://creativecommons.org/ns#" xmlns:rdf="http://www.w3.org/1999/02/22-rdf-syntax-ns#">
   <cc:Work>
    <dc:type rdf:resource="http://purl.org/dc/dcmitype/StillImage"/>
    <dc:date>2023-10-17T21:39:52.231355</dc:date>
    <dc:format>image/svg+xml</dc:format>
    <dc:creator>
     <cc:Agent>
      <dc:title>Matplotlib v3.7.0, https://matplotlib.org/</dc:title>
     </cc:Agent>
    </dc:creator>
   </cc:Work>
  </rdf:RDF>
 </metadata>
 <defs>
  <style type="text/css">*{stroke-linejoin: round; stroke-linecap: butt}</style>
 </defs>
 <g id="figure_1">
  <g id="patch_1">
   <path d="M 0 576 
L 2160 576 
L 2160 0 
L 0 0 
z
" style="fill: #ffffff"/>
  </g>
  <g id="axes_1">
   <g id="patch_2">
    <path d="M 97.72 437.28 
L 2149.2 437.28 
L 2149.2 32.64 
L 97.72 32.64 
z
" style="fill: #ffffff"/>
   </g>
   <g id="matplotlib.axis_1">
    <g id="xtick_1">
     <g id="line2d_1">
      <path d="M 157.693766 437.28 
L 157.693766 32.64 
" clip-path="url(#pafec0aa12b)" style="fill: none; stroke: #b0b0b0; stroke-width: 0.8; stroke-linecap: square"/>
     </g>
     <g id="line2d_2">
      <defs>
       <path id="mcadb460bc9" d="M 0 0 
L 0 6 
" style="stroke: #000000; stroke-width: 3"/>
      </defs>
      <g>
       <use xlink:href="#mcadb460bc9" x="157.693766" y="437.28" style="stroke: #000000; stroke-width: 3"/>
      </g>
     </g>
     <g id="text_1">
      <!-- 2019-08-04 -->
      <g transform="translate(163.212516 565.51125) rotate(-90) scale(0.2 -0.2)">
       <defs>
        <path id="DejaVuSans-32" d="M 1228 531 
L 3431 531 
L 3431 0 
L 469 0 
L 469 531 
Q 828 903 1448 1529 
Q 2069 2156 2228 2338 
Q 2531 2678 2651 2914 
Q 2772 3150 2772 3378 
Q 2772 3750 2511 3984 
Q 2250 4219 1831 4219 
Q 1534 4219 1204 4116 
Q 875 4013 500 3803 
L 500 4441 
Q 881 4594 1212 4672 
Q 1544 4750 1819 4750 
Q 2544 4750 2975 4387 
Q 3406 4025 3406 3419 
Q 3406 3131 3298 2873 
Q 3191 2616 2906 2266 
Q 2828 2175 2409 1742 
Q 1991 1309 1228 531 
z
" transform="scale(0.015625)"/>
        <path id="DejaVuSans-30" d="M 2034 4250 
Q 1547 4250 1301 3770 
Q 1056 3291 1056 2328 
Q 1056 1369 1301 889 
Q 1547 409 2034 409 
Q 2525 409 2770 889 
Q 3016 1369 3016 2328 
Q 3016 3291 2770 3770 
Q 2525 4250 2034 4250 
z
M 2034 4750 
Q 2819 4750 3233 4129 
Q 3647 3509 3647 2328 
Q 3647 1150 3233 529 
Q 2819 -91 2034 -91 
Q 1250 -91 836 529 
Q 422 1150 422 2328 
Q 422 3509 836 4129 
Q 1250 4750 2034 4750 
z
" transform="scale(0.015625)"/>
        <path id="DejaVuSans-31" d="M 794 531 
L 1825 531 
L 1825 4091 
L 703 3866 
L 703 4441 
L 1819 4666 
L 2450 4666 
L 2450 531 
L 3481 531 
L 3481 0 
L 794 0 
L 794 531 
z
" transform="scale(0.015625)"/>
        <path id="DejaVuSans-39" d="M 703 97 
L 703 672 
Q 941 559 1184 500 
Q 1428 441 1663 441 
Q 2288 441 2617 861 
Q 2947 1281 2994 2138 
Q 2813 1869 2534 1725 
Q 2256 1581 1919 1581 
Q 1219 1581 811 2004 
Q 403 2428 403 3163 
Q 403 3881 828 4315 
Q 1253 4750 1959 4750 
Q 2769 4750 3195 4129 
Q 3622 3509 3622 2328 
Q 3622 1225 3098 567 
Q 2575 -91 1691 -91 
Q 1453 -91 1209 -44 
Q 966 3 703 97 
z
M 1959 2075 
Q 2384 2075 2632 2365 
Q 2881 2656 2881 3163 
Q 2881 3666 2632 3958 
Q 2384 4250 1959 4250 
Q 1534 4250 1286 3958 
Q 1038 3666 1038 3163 
Q 1038 2656 1286 2365 
Q 1534 2075 1959 2075 
z
" transform="scale(0.015625)"/>
        <path id="DejaVuSans-2d" d="M 313 2009 
L 1997 2009 
L 1997 1497 
L 313 1497 
L 313 2009 
z
" transform="scale(0.015625)"/>
        <path id="DejaVuSans-38" d="M 2034 2216 
Q 1584 2216 1326 1975 
Q 1069 1734 1069 1313 
Q 1069 891 1326 650 
Q 1584 409 2034 409 
Q 2484 409 2743 651 
Q 3003 894 3003 1313 
Q 3003 1734 2745 1975 
Q 2488 2216 2034 2216 
z
M 1403 2484 
Q 997 2584 770 2862 
Q 544 3141 544 3541 
Q 544 4100 942 4425 
Q 1341 4750 2034 4750 
Q 2731 4750 3128 4425 
Q 3525 4100 3525 3541 
Q 3525 3141 3298 2862 
Q 3072 2584 2669 2484 
Q 3125 2378 3379 2068 
Q 3634 1759 3634 1313 
Q 3634 634 3220 271 
Q 2806 -91 2034 -91 
Q 1263 -91 848 271 
Q 434 634 434 1313 
Q 434 1759 690 2068 
Q 947 2378 1403 2484 
z
M 1172 3481 
Q 1172 3119 1398 2916 
Q 1625 2713 2034 2713 
Q 2441 2713 2670 2916 
Q 2900 3119 2900 3481 
Q 2900 3844 2670 4047 
Q 2441 4250 2034 4250 
Q 1625 4250 1398 4047 
Q 1172 3844 1172 3481 
z
" transform="scale(0.015625)"/>
        <path id="DejaVuSans-34" d="M 2419 4116 
L 825 1625 
L 2419 1625 
L 2419 4116 
z
M 2253 4666 
L 3047 4666 
L 3047 1625 
L 3713 1625 
L 3713 1100 
L 3047 1100 
L 3047 0 
L 2419 0 
L 2419 1100 
L 313 1100 
L 313 1709 
L 2253 4666 
z
" transform="scale(0.015625)"/>
       </defs>
       <use xlink:href="#DejaVuSans-32"/>
       <use xlink:href="#DejaVuSans-30" x="63.623047"/>
       <use xlink:href="#DejaVuSans-31" x="127.246094"/>
       <use xlink:href="#DejaVuSans-39" x="190.869141"/>
       <use xlink:href="#DejaVuSans-2d" x="254.492188"/>
       <use xlink:href="#DejaVuSans-30" x="290.576172"/>
       <use xlink:href="#DejaVuSans-38" x="354.199219"/>
       <use xlink:href="#DejaVuSans-2d" x="417.822266"/>
       <use xlink:href="#DejaVuSans-30" x="453.90625"/>
       <use xlink:href="#DejaVuSans-34" x="517.529297"/>
      </g>
     </g>
    </g>
    <g id="xtick_2">
     <g id="line2d_3">
      <path d="M 228.055687 437.28 
L 228.055687 32.64 
" clip-path="url(#pafec0aa12b)" style="fill: none; stroke: #b0b0b0; stroke-width: 0.8; stroke-linecap: square"/>
     </g>
     <g id="line2d_4">
      <g>
       <use xlink:href="#mcadb460bc9" x="228.055687" y="437.28" style="stroke: #000000; stroke-width: 3"/>
      </g>
     </g>
     <g id="text_2">
      <!-- 2019-08-05 -->
      <g transform="translate(233.574437 565.51125) rotate(-90) scale(0.2 -0.2)">
       <defs>
        <path id="DejaVuSans-35" d="M 691 4666 
L 3169 4666 
L 3169 4134 
L 1269 4134 
L 1269 2991 
Q 1406 3038 1543 3061 
Q 1681 3084 1819 3084 
Q 2600 3084 3056 2656 
Q 3513 2228 3513 1497 
Q 3513 744 3044 326 
Q 2575 -91 1722 -91 
Q 1428 -91 1123 -41 
Q 819 9 494 109 
L 494 744 
Q 775 591 1075 516 
Q 1375 441 1709 441 
Q 2250 441 2565 725 
Q 2881 1009 2881 1497 
Q 2881 1984 2565 2268 
Q 2250 2553 1709 2553 
Q 1456 2553 1204 2497 
Q 953 2441 691 2322 
L 691 4666 
z
" transform="scale(0.015625)"/>
       </defs>
       <use xlink:href="#DejaVuSans-32"/>
       <use xlink:href="#DejaVuSans-30" x="63.623047"/>
       <use xlink:href="#DejaVuSans-31" x="127.246094"/>
       <use xlink:href="#DejaVuSans-39" x="190.869141"/>
       <use xlink:href="#DejaVuSans-2d" x="254.492188"/>
       <use xlink:href="#DejaVuSans-30" x="290.576172"/>
       <use xlink:href="#DejaVuSans-38" x="354.199219"/>
       <use xlink:href="#DejaVuSans-2d" x="417.822266"/>
       <use xlink:href="#DejaVuSans-30" x="453.90625"/>
       <use xlink:href="#DejaVuSans-35" x="517.529297"/>
      </g>
     </g>
    </g>
    <g id="xtick_3">
     <g id="line2d_5">
      <path d="M 298.417608 437.28 
L 298.417608 32.64 
" clip-path="url(#pafec0aa12b)" style="fill: none; stroke: #b0b0b0; stroke-width: 0.8; stroke-linecap: square"/>
     </g>
     <g id="line2d_6">
      <g>
       <use xlink:href="#mcadb460bc9" x="298.417608" y="437.28" style="stroke: #000000; stroke-width: 3"/>
      </g>
     </g>
     <g id="text_3">
      <!-- 2019-08-06 -->
      <g transform="translate(303.936358 565.51125) rotate(-90) scale(0.2 -0.2)">
       <defs>
        <path id="DejaVuSans-36" d="M 2113 2584 
Q 1688 2584 1439 2293 
Q 1191 2003 1191 1497 
Q 1191 994 1439 701 
Q 1688 409 2113 409 
Q 2538 409 2786 701 
Q 3034 994 3034 1497 
Q 3034 2003 2786 2293 
Q 2538 2584 2113 2584 
z
M 3366 4563 
L 3366 3988 
Q 3128 4100 2886 4159 
Q 2644 4219 2406 4219 
Q 1781 4219 1451 3797 
Q 1122 3375 1075 2522 
Q 1259 2794 1537 2939 
Q 1816 3084 2150 3084 
Q 2853 3084 3261 2657 
Q 3669 2231 3669 1497 
Q 3669 778 3244 343 
Q 2819 -91 2113 -91 
Q 1303 -91 875 529 
Q 447 1150 447 2328 
Q 447 3434 972 4092 
Q 1497 4750 2381 4750 
Q 2619 4750 2861 4703 
Q 3103 4656 3366 4563 
z
" transform="scale(0.015625)"/>
       </defs>
       <use xlink:href="#DejaVuSans-32"/>
       <use xlink:href="#DejaVuSans-30" x="63.623047"/>
       <use xlink:href="#DejaVuSans-31" x="127.246094"/>
       <use xlink:href="#DejaVuSans-39" x="190.869141"/>
       <use xlink:href="#DejaVuSans-2d" x="254.492188"/>
       <use xlink:href="#DejaVuSans-30" x="290.576172"/>
       <use xlink:href="#DejaVuSans-38" x="354.199219"/>
       <use xlink:href="#DejaVuSans-2d" x="417.822266"/>
       <use xlink:href="#DejaVuSans-30" x="453.90625"/>
       <use xlink:href="#DejaVuSans-36" x="517.529297"/>
      </g>
     </g>
    </g>
    <g id="xtick_4">
     <g id="line2d_7">
      <path d="M 368.77953 437.28 
L 368.77953 32.64 
" clip-path="url(#pafec0aa12b)" style="fill: none; stroke: #b0b0b0; stroke-width: 0.8; stroke-linecap: square"/>
     </g>
     <g id="line2d_8">
      <g>
       <use xlink:href="#mcadb460bc9" x="368.77953" y="437.28" style="stroke: #000000; stroke-width: 3"/>
      </g>
     </g>
     <g id="text_4">
      <!-- 2019-08-07 -->
      <g transform="translate(374.29828 565.51125) rotate(-90) scale(0.2 -0.2)">
       <defs>
        <path id="DejaVuSans-37" d="M 525 4666 
L 3525 4666 
L 3525 4397 
L 1831 0 
L 1172 0 
L 2766 4134 
L 525 4134 
L 525 4666 
z
" transform="scale(0.015625)"/>
       </defs>
       <use xlink:href="#DejaVuSans-32"/>
       <use xlink:href="#DejaVuSans-30" x="63.623047"/>
       <use xlink:href="#DejaVuSans-31" x="127.246094"/>
       <use xlink:href="#DejaVuSans-39" x="190.869141"/>
       <use xlink:href="#DejaVuSans-2d" x="254.492188"/>
       <use xlink:href="#DejaVuSans-30" x="290.576172"/>
       <use xlink:href="#DejaVuSans-38" x="354.199219"/>
       <use xlink:href="#DejaVuSans-2d" x="417.822266"/>
       <use xlink:href="#DejaVuSans-30" x="453.90625"/>
       <use xlink:href="#DejaVuSans-37" x="517.529297"/>
      </g>
     </g>
    </g>
    <g id="xtick_5">
     <g id="line2d_9">
      <path d="M 439.141451 437.28 
L 439.141451 32.64 
" clip-path="url(#pafec0aa12b)" style="fill: none; stroke: #b0b0b0; stroke-width: 0.8; stroke-linecap: square"/>
     </g>
     <g id="line2d_10">
      <g>
       <use xlink:href="#mcadb460bc9" x="439.141451" y="437.28" style="stroke: #000000; stroke-width: 3"/>
      </g>
     </g>
     <g id="text_5">
      <!-- 2019-08-08 -->
      <g transform="translate(444.660201 565.51125) rotate(-90) scale(0.2 -0.2)">
       <use xlink:href="#DejaVuSans-32"/>
       <use xlink:href="#DejaVuSans-30" x="63.623047"/>
       <use xlink:href="#DejaVuSans-31" x="127.246094"/>
       <use xlink:href="#DejaVuSans-39" x="190.869141"/>
       <use xlink:href="#DejaVuSans-2d" x="254.492188"/>
       <use xlink:href="#DejaVuSans-30" x="290.576172"/>
       <use xlink:href="#DejaVuSans-38" x="354.199219"/>
       <use xlink:href="#DejaVuSans-2d" x="417.822266"/>
       <use xlink:href="#DejaVuSans-30" x="453.90625"/>
       <use xlink:href="#DejaVuSans-38" x="517.529297"/>
      </g>
     </g>
    </g>
    <g id="xtick_6">
     <g id="line2d_11">
      <path d="M 509.503373 437.28 
L 509.503373 32.64 
" clip-path="url(#pafec0aa12b)" style="fill: none; stroke: #b0b0b0; stroke-width: 0.8; stroke-linecap: square"/>
     </g>
     <g id="line2d_12">
      <g>
       <use xlink:href="#mcadb460bc9" x="509.503373" y="437.28" style="stroke: #000000; stroke-width: 3"/>
      </g>
     </g>
     <g id="text_6">
      <!-- 2019-08-09 -->
      <g transform="translate(515.022123 565.51125) rotate(-90) scale(0.2 -0.2)">
       <use xlink:href="#DejaVuSans-32"/>
       <use xlink:href="#DejaVuSans-30" x="63.623047"/>
       <use xlink:href="#DejaVuSans-31" x="127.246094"/>
       <use xlink:href="#DejaVuSans-39" x="190.869141"/>
       <use xlink:href="#DejaVuSans-2d" x="254.492188"/>
       <use xlink:href="#DejaVuSans-30" x="290.576172"/>
       <use xlink:href="#DejaVuSans-38" x="354.199219"/>
       <use xlink:href="#DejaVuSans-2d" x="417.822266"/>
       <use xlink:href="#DejaVuSans-30" x="453.90625"/>
       <use xlink:href="#DejaVuSans-39" x="517.529297"/>
      </g>
     </g>
    </g>
    <g id="xtick_7">
     <g id="line2d_13">
      <path d="M 579.865294 437.28 
L 579.865294 32.64 
" clip-path="url(#pafec0aa12b)" style="fill: none; stroke: #b0b0b0; stroke-width: 0.8; stroke-linecap: square"/>
     </g>
     <g id="line2d_14">
      <g>
       <use xlink:href="#mcadb460bc9" x="579.865294" y="437.28" style="stroke: #000000; stroke-width: 3"/>
      </g>
     </g>
     <g id="text_7">
      <!-- 2019-08-10 -->
      <g transform="translate(585.384044 565.51125) rotate(-90) scale(0.2 -0.2)">
       <use xlink:href="#DejaVuSans-32"/>
       <use xlink:href="#DejaVuSans-30" x="63.623047"/>
       <use xlink:href="#DejaVuSans-31" x="127.246094"/>
       <use xlink:href="#DejaVuSans-39" x="190.869141"/>
       <use xlink:href="#DejaVuSans-2d" x="254.492188"/>
       <use xlink:href="#DejaVuSans-30" x="290.576172"/>
       <use xlink:href="#DejaVuSans-38" x="354.199219"/>
       <use xlink:href="#DejaVuSans-2d" x="417.822266"/>
       <use xlink:href="#DejaVuSans-31" x="453.90625"/>
       <use xlink:href="#DejaVuSans-30" x="517.529297"/>
      </g>
     </g>
    </g>
    <g id="xtick_8">
     <g id="line2d_15">
      <path d="M 650.227216 437.28 
L 650.227216 32.64 
" clip-path="url(#pafec0aa12b)" style="fill: none; stroke: #b0b0b0; stroke-width: 0.8; stroke-linecap: square"/>
     </g>
     <g id="line2d_16">
      <g>
       <use xlink:href="#mcadb460bc9" x="650.227216" y="437.28" style="stroke: #000000; stroke-width: 3"/>
      </g>
     </g>
     <g id="text_8">
      <!-- 2019-08-11 -->
      <g transform="translate(655.745966 565.51125) rotate(-90) scale(0.2 -0.2)">
       <use xlink:href="#DejaVuSans-32"/>
       <use xlink:href="#DejaVuSans-30" x="63.623047"/>
       <use xlink:href="#DejaVuSans-31" x="127.246094"/>
       <use xlink:href="#DejaVuSans-39" x="190.869141"/>
       <use xlink:href="#DejaVuSans-2d" x="254.492188"/>
       <use xlink:href="#DejaVuSans-30" x="290.576172"/>
       <use xlink:href="#DejaVuSans-38" x="354.199219"/>
       <use xlink:href="#DejaVuSans-2d" x="417.822266"/>
       <use xlink:href="#DejaVuSans-31" x="453.90625"/>
       <use xlink:href="#DejaVuSans-31" x="517.529297"/>
      </g>
     </g>
    </g>
    <g id="xtick_9">
     <g id="line2d_17">
      <path d="M 720.589137 437.28 
L 720.589137 32.64 
" clip-path="url(#pafec0aa12b)" style="fill: none; stroke: #b0b0b0; stroke-width: 0.8; stroke-linecap: square"/>
     </g>
     <g id="line2d_18">
      <g>
       <use xlink:href="#mcadb460bc9" x="720.589137" y="437.28" style="stroke: #000000; stroke-width: 3"/>
      </g>
     </g>
     <g id="text_9">
      <!-- 2019-08-12 -->
      <g transform="translate(726.107887 565.51125) rotate(-90) scale(0.2 -0.2)">
       <use xlink:href="#DejaVuSans-32"/>
       <use xlink:href="#DejaVuSans-30" x="63.623047"/>
       <use xlink:href="#DejaVuSans-31" x="127.246094"/>
       <use xlink:href="#DejaVuSans-39" x="190.869141"/>
       <use xlink:href="#DejaVuSans-2d" x="254.492188"/>
       <use xlink:href="#DejaVuSans-30" x="290.576172"/>
       <use xlink:href="#DejaVuSans-38" x="354.199219"/>
       <use xlink:href="#DejaVuSans-2d" x="417.822266"/>
       <use xlink:href="#DejaVuSans-31" x="453.90625"/>
       <use xlink:href="#DejaVuSans-32" x="517.529297"/>
      </g>
     </g>
    </g>
    <g id="xtick_10">
     <g id="line2d_19">
      <path d="M 790.951059 437.28 
L 790.951059 32.64 
" clip-path="url(#pafec0aa12b)" style="fill: none; stroke: #b0b0b0; stroke-width: 0.8; stroke-linecap: square"/>
     </g>
     <g id="line2d_20">
      <g>
       <use xlink:href="#mcadb460bc9" x="790.951059" y="437.28" style="stroke: #000000; stroke-width: 3"/>
      </g>
     </g>
     <g id="text_10">
      <!-- 2019-08-13 -->
      <g transform="translate(796.469809 565.51125) rotate(-90) scale(0.2 -0.2)">
       <defs>
        <path id="DejaVuSans-33" d="M 2597 2516 
Q 3050 2419 3304 2112 
Q 3559 1806 3559 1356 
Q 3559 666 3084 287 
Q 2609 -91 1734 -91 
Q 1441 -91 1130 -33 
Q 819 25 488 141 
L 488 750 
Q 750 597 1062 519 
Q 1375 441 1716 441 
Q 2309 441 2620 675 
Q 2931 909 2931 1356 
Q 2931 1769 2642 2001 
Q 2353 2234 1838 2234 
L 1294 2234 
L 1294 2753 
L 1863 2753 
Q 2328 2753 2575 2939 
Q 2822 3125 2822 3475 
Q 2822 3834 2567 4026 
Q 2313 4219 1838 4219 
Q 1578 4219 1281 4162 
Q 984 4106 628 3988 
L 628 4550 
Q 988 4650 1302 4700 
Q 1616 4750 1894 4750 
Q 2613 4750 3031 4423 
Q 3450 4097 3450 3541 
Q 3450 3153 3228 2886 
Q 3006 2619 2597 2516 
z
" transform="scale(0.015625)"/>
       </defs>
       <use xlink:href="#DejaVuSans-32"/>
       <use xlink:href="#DejaVuSans-30" x="63.623047"/>
       <use xlink:href="#DejaVuSans-31" x="127.246094"/>
       <use xlink:href="#DejaVuSans-39" x="190.869141"/>
       <use xlink:href="#DejaVuSans-2d" x="254.492188"/>
       <use xlink:href="#DejaVuSans-30" x="290.576172"/>
       <use xlink:href="#DejaVuSans-38" x="354.199219"/>
       <use xlink:href="#DejaVuSans-2d" x="417.822266"/>
       <use xlink:href="#DejaVuSans-31" x="453.90625"/>
       <use xlink:href="#DejaVuSans-33" x="517.529297"/>
      </g>
     </g>
    </g>
    <g id="xtick_11">
     <g id="line2d_21">
      <path d="M 861.31298 437.28 
L 861.31298 32.64 
" clip-path="url(#pafec0aa12b)" style="fill: none; stroke: #b0b0b0; stroke-width: 0.8; stroke-linecap: square"/>
     </g>
     <g id="line2d_22">
      <g>
       <use xlink:href="#mcadb460bc9" x="861.31298" y="437.28" style="stroke: #000000; stroke-width: 3"/>
      </g>
     </g>
     <g id="text_11">
      <!-- 2019-08-14 -->
      <g transform="translate(866.83173 565.51125) rotate(-90) scale(0.2 -0.2)">
       <use xlink:href="#DejaVuSans-32"/>
       <use xlink:href="#DejaVuSans-30" x="63.623047"/>
       <use xlink:href="#DejaVuSans-31" x="127.246094"/>
       <use xlink:href="#DejaVuSans-39" x="190.869141"/>
       <use xlink:href="#DejaVuSans-2d" x="254.492188"/>
       <use xlink:href="#DejaVuSans-30" x="290.576172"/>
       <use xlink:href="#DejaVuSans-38" x="354.199219"/>
       <use xlink:href="#DejaVuSans-2d" x="417.822266"/>
       <use xlink:href="#DejaVuSans-31" x="453.90625"/>
       <use xlink:href="#DejaVuSans-34" x="517.529297"/>
      </g>
     </g>
    </g>
    <g id="xtick_12">
     <g id="line2d_23">
      <path d="M 931.674902 437.28 
L 931.674902 32.64 
" clip-path="url(#pafec0aa12b)" style="fill: none; stroke: #b0b0b0; stroke-width: 0.8; stroke-linecap: square"/>
     </g>
     <g id="line2d_24">
      <g>
       <use xlink:href="#mcadb460bc9" x="931.674902" y="437.28" style="stroke: #000000; stroke-width: 3"/>
      </g>
     </g>
     <g id="text_12">
      <!-- 2019-08-15 -->
      <g transform="translate(937.193652 565.51125) rotate(-90) scale(0.2 -0.2)">
       <use xlink:href="#DejaVuSans-32"/>
       <use xlink:href="#DejaVuSans-30" x="63.623047"/>
       <use xlink:href="#DejaVuSans-31" x="127.246094"/>
       <use xlink:href="#DejaVuSans-39" x="190.869141"/>
       <use xlink:href="#DejaVuSans-2d" x="254.492188"/>
       <use xlink:href="#DejaVuSans-30" x="290.576172"/>
       <use xlink:href="#DejaVuSans-38" x="354.199219"/>
       <use xlink:href="#DejaVuSans-2d" x="417.822266"/>
       <use xlink:href="#DejaVuSans-31" x="453.90625"/>
       <use xlink:href="#DejaVuSans-35" x="517.529297"/>
      </g>
     </g>
    </g>
    <g id="xtick_13">
     <g id="line2d_25">
      <path d="M 1002.036823 437.28 
L 1002.036823 32.64 
" clip-path="url(#pafec0aa12b)" style="fill: none; stroke: #b0b0b0; stroke-width: 0.8; stroke-linecap: square"/>
     </g>
     <g id="line2d_26">
      <g>
       <use xlink:href="#mcadb460bc9" x="1002.036823" y="437.28" style="stroke: #000000; stroke-width: 3"/>
      </g>
     </g>
     <g id="text_13">
      <!-- 2019-08-16 -->
      <g transform="translate(1007.555573 565.51125) rotate(-90) scale(0.2 -0.2)">
       <use xlink:href="#DejaVuSans-32"/>
       <use xlink:href="#DejaVuSans-30" x="63.623047"/>
       <use xlink:href="#DejaVuSans-31" x="127.246094"/>
       <use xlink:href="#DejaVuSans-39" x="190.869141"/>
       <use xlink:href="#DejaVuSans-2d" x="254.492188"/>
       <use xlink:href="#DejaVuSans-30" x="290.576172"/>
       <use xlink:href="#DejaVuSans-38" x="354.199219"/>
       <use xlink:href="#DejaVuSans-2d" x="417.822266"/>
       <use xlink:href="#DejaVuSans-31" x="453.90625"/>
       <use xlink:href="#DejaVuSans-36" x="517.529297"/>
      </g>
     </g>
    </g>
    <g id="xtick_14">
     <g id="line2d_27">
      <path d="M 1072.398744 437.28 
L 1072.398744 32.64 
" clip-path="url(#pafec0aa12b)" style="fill: none; stroke: #b0b0b0; stroke-width: 0.8; stroke-linecap: square"/>
     </g>
     <g id="line2d_28">
      <g>
       <use xlink:href="#mcadb460bc9" x="1072.398744" y="437.28" style="stroke: #000000; stroke-width: 3"/>
      </g>
     </g>
     <g id="text_14">
      <!-- 2019-08-17 -->
      <g transform="translate(1077.917494 565.51125) rotate(-90) scale(0.2 -0.2)">
       <use xlink:href="#DejaVuSans-32"/>
       <use xlink:href="#DejaVuSans-30" x="63.623047"/>
       <use xlink:href="#DejaVuSans-31" x="127.246094"/>
       <use xlink:href="#DejaVuSans-39" x="190.869141"/>
       <use xlink:href="#DejaVuSans-2d" x="254.492188"/>
       <use xlink:href="#DejaVuSans-30" x="290.576172"/>
       <use xlink:href="#DejaVuSans-38" x="354.199219"/>
       <use xlink:href="#DejaVuSans-2d" x="417.822266"/>
       <use xlink:href="#DejaVuSans-31" x="453.90625"/>
       <use xlink:href="#DejaVuSans-37" x="517.529297"/>
      </g>
     </g>
    </g>
    <g id="xtick_15">
     <g id="line2d_29">
      <path d="M 1142.760666 437.28 
L 1142.760666 32.64 
" clip-path="url(#pafec0aa12b)" style="fill: none; stroke: #b0b0b0; stroke-width: 0.8; stroke-linecap: square"/>
     </g>
     <g id="line2d_30">
      <g>
       <use xlink:href="#mcadb460bc9" x="1142.760666" y="437.28" style="stroke: #000000; stroke-width: 3"/>
      </g>
     </g>
     <g id="text_15">
      <!-- 2019-08-18 -->
      <g transform="translate(1148.279416 565.51125) rotate(-90) scale(0.2 -0.2)">
       <use xlink:href="#DejaVuSans-32"/>
       <use xlink:href="#DejaVuSans-30" x="63.623047"/>
       <use xlink:href="#DejaVuSans-31" x="127.246094"/>
       <use xlink:href="#DejaVuSans-39" x="190.869141"/>
       <use xlink:href="#DejaVuSans-2d" x="254.492188"/>
       <use xlink:href="#DejaVuSans-30" x="290.576172"/>
       <use xlink:href="#DejaVuSans-38" x="354.199219"/>
       <use xlink:href="#DejaVuSans-2d" x="417.822266"/>
       <use xlink:href="#DejaVuSans-31" x="453.90625"/>
       <use xlink:href="#DejaVuSans-38" x="517.529297"/>
      </g>
     </g>
    </g>
    <g id="xtick_16">
     <g id="line2d_31">
      <path d="M 1213.122587 437.28 
L 1213.122587 32.64 
" clip-path="url(#pafec0aa12b)" style="fill: none; stroke: #b0b0b0; stroke-width: 0.8; stroke-linecap: square"/>
     </g>
     <g id="line2d_32">
      <g>
       <use xlink:href="#mcadb460bc9" x="1213.122587" y="437.28" style="stroke: #000000; stroke-width: 3"/>
      </g>
     </g>
     <g id="text_16">
      <!-- 2019-08-19 -->
      <g transform="translate(1218.641337 565.51125) rotate(-90) scale(0.2 -0.2)">
       <use xlink:href="#DejaVuSans-32"/>
       <use xlink:href="#DejaVuSans-30" x="63.623047"/>
       <use xlink:href="#DejaVuSans-31" x="127.246094"/>
       <use xlink:href="#DejaVuSans-39" x="190.869141"/>
       <use xlink:href="#DejaVuSans-2d" x="254.492188"/>
       <use xlink:href="#DejaVuSans-30" x="290.576172"/>
       <use xlink:href="#DejaVuSans-38" x="354.199219"/>
       <use xlink:href="#DejaVuSans-2d" x="417.822266"/>
       <use xlink:href="#DejaVuSans-31" x="453.90625"/>
       <use xlink:href="#DejaVuSans-39" x="517.529297"/>
      </g>
     </g>
    </g>
    <g id="xtick_17">
     <g id="line2d_33">
      <path d="M 1283.484509 437.28 
L 1283.484509 32.64 
" clip-path="url(#pafec0aa12b)" style="fill: none; stroke: #b0b0b0; stroke-width: 0.8; stroke-linecap: square"/>
     </g>
     <g id="line2d_34">
      <g>
       <use xlink:href="#mcadb460bc9" x="1283.484509" y="437.28" style="stroke: #000000; stroke-width: 3"/>
      </g>
     </g>
     <g id="text_17">
      <!-- 2019-08-20 -->
      <g transform="translate(1289.003259 565.51125) rotate(-90) scale(0.2 -0.2)">
       <use xlink:href="#DejaVuSans-32"/>
       <use xlink:href="#DejaVuSans-30" x="63.623047"/>
       <use xlink:href="#DejaVuSans-31" x="127.246094"/>
       <use xlink:href="#DejaVuSans-39" x="190.869141"/>
       <use xlink:href="#DejaVuSans-2d" x="254.492188"/>
       <use xlink:href="#DejaVuSans-30" x="290.576172"/>
       <use xlink:href="#DejaVuSans-38" x="354.199219"/>
       <use xlink:href="#DejaVuSans-2d" x="417.822266"/>
       <use xlink:href="#DejaVuSans-32" x="453.90625"/>
       <use xlink:href="#DejaVuSans-30" x="517.529297"/>
      </g>
     </g>
    </g>
    <g id="xtick_18">
     <g id="line2d_35">
      <path d="M 1353.84643 437.28 
L 1353.84643 32.64 
" clip-path="url(#pafec0aa12b)" style="fill: none; stroke: #b0b0b0; stroke-width: 0.8; stroke-linecap: square"/>
     </g>
     <g id="line2d_36">
      <g>
       <use xlink:href="#mcadb460bc9" x="1353.84643" y="437.28" style="stroke: #000000; stroke-width: 3"/>
      </g>
     </g>
     <g id="text_18">
      <!-- 2019-08-21 -->
      <g transform="translate(1359.36518 565.51125) rotate(-90) scale(0.2 -0.2)">
       <use xlink:href="#DejaVuSans-32"/>
       <use xlink:href="#DejaVuSans-30" x="63.623047"/>
       <use xlink:href="#DejaVuSans-31" x="127.246094"/>
       <use xlink:href="#DejaVuSans-39" x="190.869141"/>
       <use xlink:href="#DejaVuSans-2d" x="254.492188"/>
       <use xlink:href="#DejaVuSans-30" x="290.576172"/>
       <use xlink:href="#DejaVuSans-38" x="354.199219"/>
       <use xlink:href="#DejaVuSans-2d" x="417.822266"/>
       <use xlink:href="#DejaVuSans-32" x="453.90625"/>
       <use xlink:href="#DejaVuSans-31" x="517.529297"/>
      </g>
     </g>
    </g>
    <g id="xtick_19">
     <g id="line2d_37">
      <path d="M 1424.208352 437.28 
L 1424.208352 32.64 
" clip-path="url(#pafec0aa12b)" style="fill: none; stroke: #b0b0b0; stroke-width: 0.8; stroke-linecap: square"/>
     </g>
     <g id="line2d_38">
      <g>
       <use xlink:href="#mcadb460bc9" x="1424.208352" y="437.28" style="stroke: #000000; stroke-width: 3"/>
      </g>
     </g>
     <g id="text_19">
      <!-- 2019-08-22 -->
      <g transform="translate(1429.727102 565.51125) rotate(-90) scale(0.2 -0.2)">
       <use xlink:href="#DejaVuSans-32"/>
       <use xlink:href="#DejaVuSans-30" x="63.623047"/>
       <use xlink:href="#DejaVuSans-31" x="127.246094"/>
       <use xlink:href="#DejaVuSans-39" x="190.869141"/>
       <use xlink:href="#DejaVuSans-2d" x="254.492188"/>
       <use xlink:href="#DejaVuSans-30" x="290.576172"/>
       <use xlink:href="#DejaVuSans-38" x="354.199219"/>
       <use xlink:href="#DejaVuSans-2d" x="417.822266"/>
       <use xlink:href="#DejaVuSans-32" x="453.90625"/>
       <use xlink:href="#DejaVuSans-32" x="517.529297"/>
      </g>
     </g>
    </g>
    <g id="xtick_20">
     <g id="line2d_39">
      <path d="M 1494.570273 437.28 
L 1494.570273 32.64 
" clip-path="url(#pafec0aa12b)" style="fill: none; stroke: #b0b0b0; stroke-width: 0.8; stroke-linecap: square"/>
     </g>
     <g id="line2d_40">
      <g>
       <use xlink:href="#mcadb460bc9" x="1494.570273" y="437.28" style="stroke: #000000; stroke-width: 3"/>
      </g>
     </g>
     <g id="text_20">
      <!-- 2019-08-23 -->
      <g transform="translate(1500.089023 565.51125) rotate(-90) scale(0.2 -0.2)">
       <use xlink:href="#DejaVuSans-32"/>
       <use xlink:href="#DejaVuSans-30" x="63.623047"/>
       <use xlink:href="#DejaVuSans-31" x="127.246094"/>
       <use xlink:href="#DejaVuSans-39" x="190.869141"/>
       <use xlink:href="#DejaVuSans-2d" x="254.492188"/>
       <use xlink:href="#DejaVuSans-30" x="290.576172"/>
       <use xlink:href="#DejaVuSans-38" x="354.199219"/>
       <use xlink:href="#DejaVuSans-2d" x="417.822266"/>
       <use xlink:href="#DejaVuSans-32" x="453.90625"/>
       <use xlink:href="#DejaVuSans-33" x="517.529297"/>
      </g>
     </g>
    </g>
    <g id="xtick_21">
     <g id="line2d_41">
      <path d="M 1564.932195 437.28 
L 1564.932195 32.64 
" clip-path="url(#pafec0aa12b)" style="fill: none; stroke: #b0b0b0; stroke-width: 0.8; stroke-linecap: square"/>
     </g>
     <g id="line2d_42">
      <g>
       <use xlink:href="#mcadb460bc9" x="1564.932195" y="437.28" style="stroke: #000000; stroke-width: 3"/>
      </g>
     </g>
     <g id="text_21">
      <!-- 2019-08-24 -->
      <g transform="translate(1570.450945 565.51125) rotate(-90) scale(0.2 -0.2)">
       <use xlink:href="#DejaVuSans-32"/>
       <use xlink:href="#DejaVuSans-30" x="63.623047"/>
       <use xlink:href="#DejaVuSans-31" x="127.246094"/>
       <use xlink:href="#DejaVuSans-39" x="190.869141"/>
       <use xlink:href="#DejaVuSans-2d" x="254.492188"/>
       <use xlink:href="#DejaVuSans-30" x="290.576172"/>
       <use xlink:href="#DejaVuSans-38" x="354.199219"/>
       <use xlink:href="#DejaVuSans-2d" x="417.822266"/>
       <use xlink:href="#DejaVuSans-32" x="453.90625"/>
       <use xlink:href="#DejaVuSans-34" x="517.529297"/>
      </g>
     </g>
    </g>
    <g id="xtick_22">
     <g id="line2d_43">
      <path d="M 1635.294116 437.28 
L 1635.294116 32.64 
" clip-path="url(#pafec0aa12b)" style="fill: none; stroke: #b0b0b0; stroke-width: 0.8; stroke-linecap: square"/>
     </g>
     <g id="line2d_44">
      <g>
       <use xlink:href="#mcadb460bc9" x="1635.294116" y="437.28" style="stroke: #000000; stroke-width: 3"/>
      </g>
     </g>
     <g id="text_22">
      <!-- 2019-08-25 -->
      <g transform="translate(1640.812866 565.51125) rotate(-90) scale(0.2 -0.2)">
       <use xlink:href="#DejaVuSans-32"/>
       <use xlink:href="#DejaVuSans-30" x="63.623047"/>
       <use xlink:href="#DejaVuSans-31" x="127.246094"/>
       <use xlink:href="#DejaVuSans-39" x="190.869141"/>
       <use xlink:href="#DejaVuSans-2d" x="254.492188"/>
       <use xlink:href="#DejaVuSans-30" x="290.576172"/>
       <use xlink:href="#DejaVuSans-38" x="354.199219"/>
       <use xlink:href="#DejaVuSans-2d" x="417.822266"/>
       <use xlink:href="#DejaVuSans-32" x="453.90625"/>
       <use xlink:href="#DejaVuSans-35" x="517.529297"/>
      </g>
     </g>
    </g>
    <g id="xtick_23">
     <g id="line2d_45">
      <path d="M 1705.656038 437.28 
L 1705.656038 32.64 
" clip-path="url(#pafec0aa12b)" style="fill: none; stroke: #b0b0b0; stroke-width: 0.8; stroke-linecap: square"/>
     </g>
     <g id="line2d_46">
      <g>
       <use xlink:href="#mcadb460bc9" x="1705.656038" y="437.28" style="stroke: #000000; stroke-width: 3"/>
      </g>
     </g>
     <g id="text_23">
      <!-- 2019-08-26 -->
      <g transform="translate(1711.174788 565.51125) rotate(-90) scale(0.2 -0.2)">
       <use xlink:href="#DejaVuSans-32"/>
       <use xlink:href="#DejaVuSans-30" x="63.623047"/>
       <use xlink:href="#DejaVuSans-31" x="127.246094"/>
       <use xlink:href="#DejaVuSans-39" x="190.869141"/>
       <use xlink:href="#DejaVuSans-2d" x="254.492188"/>
       <use xlink:href="#DejaVuSans-30" x="290.576172"/>
       <use xlink:href="#DejaVuSans-38" x="354.199219"/>
       <use xlink:href="#DejaVuSans-2d" x="417.822266"/>
       <use xlink:href="#DejaVuSans-32" x="453.90625"/>
       <use xlink:href="#DejaVuSans-36" x="517.529297"/>
      </g>
     </g>
    </g>
    <g id="xtick_24">
     <g id="line2d_47">
      <path d="M 1776.017959 437.28 
L 1776.017959 32.64 
" clip-path="url(#pafec0aa12b)" style="fill: none; stroke: #b0b0b0; stroke-width: 0.8; stroke-linecap: square"/>
     </g>
     <g id="line2d_48">
      <g>
       <use xlink:href="#mcadb460bc9" x="1776.017959" y="437.28" style="stroke: #000000; stroke-width: 3"/>
      </g>
     </g>
     <g id="text_24">
      <!-- 2019-08-27 -->
      <g transform="translate(1781.536709 565.51125) rotate(-90) scale(0.2 -0.2)">
       <use xlink:href="#DejaVuSans-32"/>
       <use xlink:href="#DejaVuSans-30" x="63.623047"/>
       <use xlink:href="#DejaVuSans-31" x="127.246094"/>
       <use xlink:href="#DejaVuSans-39" x="190.869141"/>
       <use xlink:href="#DejaVuSans-2d" x="254.492188"/>
       <use xlink:href="#DejaVuSans-30" x="290.576172"/>
       <use xlink:href="#DejaVuSans-38" x="354.199219"/>
       <use xlink:href="#DejaVuSans-2d" x="417.822266"/>
       <use xlink:href="#DejaVuSans-32" x="453.90625"/>
       <use xlink:href="#DejaVuSans-37" x="517.529297"/>
      </g>
     </g>
    </g>
    <g id="xtick_25">
     <g id="line2d_49">
      <path d="M 1846.379881 437.28 
L 1846.379881 32.64 
" clip-path="url(#pafec0aa12b)" style="fill: none; stroke: #b0b0b0; stroke-width: 0.8; stroke-linecap: square"/>
     </g>
     <g id="line2d_50">
      <g>
       <use xlink:href="#mcadb460bc9" x="1846.379881" y="437.28" style="stroke: #000000; stroke-width: 3"/>
      </g>
     </g>
     <g id="text_25">
      <!-- 2019-08-28 -->
      <g transform="translate(1851.898631 565.51125) rotate(-90) scale(0.2 -0.2)">
       <use xlink:href="#DejaVuSans-32"/>
       <use xlink:href="#DejaVuSans-30" x="63.623047"/>
       <use xlink:href="#DejaVuSans-31" x="127.246094"/>
       <use xlink:href="#DejaVuSans-39" x="190.869141"/>
       <use xlink:href="#DejaVuSans-2d" x="254.492188"/>
       <use xlink:href="#DejaVuSans-30" x="290.576172"/>
       <use xlink:href="#DejaVuSans-38" x="354.199219"/>
       <use xlink:href="#DejaVuSans-2d" x="417.822266"/>
       <use xlink:href="#DejaVuSans-32" x="453.90625"/>
       <use xlink:href="#DejaVuSans-38" x="517.529297"/>
      </g>
     </g>
    </g>
    <g id="xtick_26">
     <g id="line2d_51">
      <path d="M 1916.741802 437.28 
L 1916.741802 32.64 
" clip-path="url(#pafec0aa12b)" style="fill: none; stroke: #b0b0b0; stroke-width: 0.8; stroke-linecap: square"/>
     </g>
     <g id="line2d_52">
      <g>
       <use xlink:href="#mcadb460bc9" x="1916.741802" y="437.28" style="stroke: #000000; stroke-width: 3"/>
      </g>
     </g>
     <g id="text_26">
      <!-- 2019-08-29 -->
      <g transform="translate(1922.260552 565.51125) rotate(-90) scale(0.2 -0.2)">
       <use xlink:href="#DejaVuSans-32"/>
       <use xlink:href="#DejaVuSans-30" x="63.623047"/>
       <use xlink:href="#DejaVuSans-31" x="127.246094"/>
       <use xlink:href="#DejaVuSans-39" x="190.869141"/>
       <use xlink:href="#DejaVuSans-2d" x="254.492188"/>
       <use xlink:href="#DejaVuSans-30" x="290.576172"/>
       <use xlink:href="#DejaVuSans-38" x="354.199219"/>
       <use xlink:href="#DejaVuSans-2d" x="417.822266"/>
       <use xlink:href="#DejaVuSans-32" x="453.90625"/>
       <use xlink:href="#DejaVuSans-39" x="517.529297"/>
      </g>
     </g>
    </g>
    <g id="xtick_27">
     <g id="line2d_53">
      <path d="M 1987.103723 437.28 
L 1987.103723 32.64 
" clip-path="url(#pafec0aa12b)" style="fill: none; stroke: #b0b0b0; stroke-width: 0.8; stroke-linecap: square"/>
     </g>
     <g id="line2d_54">
      <g>
       <use xlink:href="#mcadb460bc9" x="1987.103723" y="437.28" style="stroke: #000000; stroke-width: 3"/>
      </g>
     </g>
     <g id="text_27">
      <!-- 2019-08-30 -->
      <g transform="translate(1992.622473 565.51125) rotate(-90) scale(0.2 -0.2)">
       <use xlink:href="#DejaVuSans-32"/>
       <use xlink:href="#DejaVuSans-30" x="63.623047"/>
       <use xlink:href="#DejaVuSans-31" x="127.246094"/>
       <use xlink:href="#DejaVuSans-39" x="190.869141"/>
       <use xlink:href="#DejaVuSans-2d" x="254.492188"/>
       <use xlink:href="#DejaVuSans-30" x="290.576172"/>
       <use xlink:href="#DejaVuSans-38" x="354.199219"/>
       <use xlink:href="#DejaVuSans-2d" x="417.822266"/>
       <use xlink:href="#DejaVuSans-33" x="453.90625"/>
       <use xlink:href="#DejaVuSans-30" x="517.529297"/>
      </g>
     </g>
    </g>
    <g id="xtick_28">
     <g id="line2d_55">
      <path d="M 2057.465645 437.28 
L 2057.465645 32.64 
" clip-path="url(#pafec0aa12b)" style="fill: none; stroke: #b0b0b0; stroke-width: 0.8; stroke-linecap: square"/>
     </g>
     <g id="line2d_56">
      <g>
       <use xlink:href="#mcadb460bc9" x="2057.465645" y="437.28" style="stroke: #000000; stroke-width: 3"/>
      </g>
     </g>
     <g id="text_28">
      <!-- 2019-08-31 -->
      <g transform="translate(2062.984395 565.51125) rotate(-90) scale(0.2 -0.2)">
       <use xlink:href="#DejaVuSans-32"/>
       <use xlink:href="#DejaVuSans-30" x="63.623047"/>
       <use xlink:href="#DejaVuSans-31" x="127.246094"/>
       <use xlink:href="#DejaVuSans-39" x="190.869141"/>
       <use xlink:href="#DejaVuSans-2d" x="254.492188"/>
       <use xlink:href="#DejaVuSans-30" x="290.576172"/>
       <use xlink:href="#DejaVuSans-38" x="354.199219"/>
       <use xlink:href="#DejaVuSans-2d" x="417.822266"/>
       <use xlink:href="#DejaVuSans-33" x="453.90625"/>
       <use xlink:href="#DejaVuSans-31" x="517.529297"/>
      </g>
     </g>
    </g>
    <g id="xtick_29">
     <g id="line2d_57">
      <path d="M 2127.827566 437.28 
L 2127.827566 32.64 
" clip-path="url(#pafec0aa12b)" style="fill: none; stroke: #b0b0b0; stroke-width: 0.8; stroke-linecap: square"/>
     </g>
     <g id="line2d_58">
      <g>
       <use xlink:href="#mcadb460bc9" x="2127.827566" y="437.28" style="stroke: #000000; stroke-width: 3"/>
      </g>
     </g>
     <g id="text_29">
      <!-- 2019-09-01 -->
      <g transform="translate(2133.346316 565.51125) rotate(-90) scale(0.2 -0.2)">
       <use xlink:href="#DejaVuSans-32"/>
       <use xlink:href="#DejaVuSans-30" x="63.623047"/>
       <use xlink:href="#DejaVuSans-31" x="127.246094"/>
       <use xlink:href="#DejaVuSans-39" x="190.869141"/>
       <use xlink:href="#DejaVuSans-2d" x="254.492188"/>
       <use xlink:href="#DejaVuSans-30" x="290.576172"/>
       <use xlink:href="#DejaVuSans-39" x="354.199219"/>
       <use xlink:href="#DejaVuSans-2d" x="417.822266"/>
       <use xlink:href="#DejaVuSans-30" x="453.90625"/>
       <use xlink:href="#DejaVuSans-31" x="517.529297"/>
      </g>
     </g>
    </g>
   </g>
   <g id="matplotlib.axis_2">
    <g id="ytick_1">
     <g id="line2d_59">
      <defs>
       <path id="m2dfffcc62d" d="M 0 0 
L -6 0 
" style="stroke: #000000; stroke-width: 3"/>
      </defs>
      <g>
       <use xlink:href="#m2dfffcc62d" x="97.72" y="403.56" style="stroke: #000000; stroke-width: 3"/>
      </g>
     </g>
     <g id="text_30">
      <!-- 400 -->
      <g transform="translate(47.545 411.158437) scale(0.2 -0.2)">
       <use xlink:href="#DejaVuSans-34"/>
       <use xlink:href="#DejaVuSans-30" x="63.623047"/>
       <use xlink:href="#DejaVuSans-30" x="127.246094"/>
      </g>
     </g>
    </g>
    <g id="ytick_2">
     <g id="line2d_60">
      <g>
       <use xlink:href="#m2dfffcc62d" x="97.72" y="326.923636" style="stroke: #000000; stroke-width: 3"/>
      </g>
     </g>
     <g id="text_31">
      <!-- 600 -->
      <g transform="translate(47.545 334.522074) scale(0.2 -0.2)">
       <use xlink:href="#DejaVuSans-36"/>
       <use xlink:href="#DejaVuSans-30" x="63.623047"/>
       <use xlink:href="#DejaVuSans-30" x="127.246094"/>
      </g>
     </g>
    </g>
    <g id="ytick_3">
     <g id="line2d_61">
      <g>
       <use xlink:href="#m2dfffcc62d" x="97.72" y="250.287273" style="stroke: #000000; stroke-width: 3"/>
      </g>
     </g>
     <g id="text_32">
      <!-- 800 -->
      <g transform="translate(47.545 257.88571) scale(0.2 -0.2)">
       <use xlink:href="#DejaVuSans-38"/>
       <use xlink:href="#DejaVuSans-30" x="63.623047"/>
       <use xlink:href="#DejaVuSans-30" x="127.246094"/>
      </g>
     </g>
    </g>
    <g id="ytick_4">
     <g id="line2d_62">
      <g>
       <use xlink:href="#m2dfffcc62d" x="97.72" y="173.650909" style="stroke: #000000; stroke-width: 3"/>
      </g>
     </g>
     <g id="text_33">
      <!-- 1000 -->
      <g transform="translate(34.82 181.249347) scale(0.2 -0.2)">
       <use xlink:href="#DejaVuSans-31"/>
       <use xlink:href="#DejaVuSans-30" x="63.623047"/>
       <use xlink:href="#DejaVuSans-30" x="127.246094"/>
       <use xlink:href="#DejaVuSans-30" x="190.869141"/>
      </g>
     </g>
    </g>
    <g id="ytick_5">
     <g id="line2d_63">
      <g>
       <use xlink:href="#m2dfffcc62d" x="97.72" y="97.014545" style="stroke: #000000; stroke-width: 3"/>
      </g>
     </g>
     <g id="text_34">
      <!-- 1200 -->
      <g transform="translate(34.82 104.612983) scale(0.2 -0.2)">
       <use xlink:href="#DejaVuSans-31"/>
       <use xlink:href="#DejaVuSans-32" x="63.623047"/>
       <use xlink:href="#DejaVuSans-30" x="127.246094"/>
       <use xlink:href="#DejaVuSans-30" x="190.869141"/>
      </g>
     </g>
    </g>
    <g id="text_35">
     <!-- Tempo de viagem (seg) -->
     <g transform="translate(26.660625 352.345938) rotate(-90) scale(0.2 -0.2)">
      <defs>
       <path id="DejaVuSans-54" d="M -19 4666 
L 3928 4666 
L 3928 4134 
L 2272 4134 
L 2272 0 
L 1638 0 
L 1638 4134 
L -19 4134 
L -19 4666 
z
" transform="scale(0.015625)"/>
       <path id="DejaVuSans-65" d="M 3597 1894 
L 3597 1613 
L 953 1613 
Q 991 1019 1311 708 
Q 1631 397 2203 397 
Q 2534 397 2845 478 
Q 3156 559 3463 722 
L 3463 178 
Q 3153 47 2828 -22 
Q 2503 -91 2169 -91 
Q 1331 -91 842 396 
Q 353 884 353 1716 
Q 353 2575 817 3079 
Q 1281 3584 2069 3584 
Q 2775 3584 3186 3129 
Q 3597 2675 3597 1894 
z
M 3022 2063 
Q 3016 2534 2758 2815 
Q 2500 3097 2075 3097 
Q 1594 3097 1305 2825 
Q 1016 2553 972 2059 
L 3022 2063 
z
" transform="scale(0.015625)"/>
       <path id="DejaVuSans-6d" d="M 3328 2828 
Q 3544 3216 3844 3400 
Q 4144 3584 4550 3584 
Q 5097 3584 5394 3201 
Q 5691 2819 5691 2113 
L 5691 0 
L 5113 0 
L 5113 2094 
Q 5113 2597 4934 2840 
Q 4756 3084 4391 3084 
Q 3944 3084 3684 2787 
Q 3425 2491 3425 1978 
L 3425 0 
L 2847 0 
L 2847 2094 
Q 2847 2600 2669 2842 
Q 2491 3084 2119 3084 
Q 1678 3084 1418 2786 
Q 1159 2488 1159 1978 
L 1159 0 
L 581 0 
L 581 3500 
L 1159 3500 
L 1159 2956 
Q 1356 3278 1631 3431 
Q 1906 3584 2284 3584 
Q 2666 3584 2933 3390 
Q 3200 3197 3328 2828 
z
" transform="scale(0.015625)"/>
       <path id="DejaVuSans-70" d="M 1159 525 
L 1159 -1331 
L 581 -1331 
L 581 3500 
L 1159 3500 
L 1159 2969 
Q 1341 3281 1617 3432 
Q 1894 3584 2278 3584 
Q 2916 3584 3314 3078 
Q 3713 2572 3713 1747 
Q 3713 922 3314 415 
Q 2916 -91 2278 -91 
Q 1894 -91 1617 61 
Q 1341 213 1159 525 
z
M 3116 1747 
Q 3116 2381 2855 2742 
Q 2594 3103 2138 3103 
Q 1681 3103 1420 2742 
Q 1159 2381 1159 1747 
Q 1159 1113 1420 752 
Q 1681 391 2138 391 
Q 2594 391 2855 752 
Q 3116 1113 3116 1747 
z
" transform="scale(0.015625)"/>
       <path id="DejaVuSans-6f" d="M 1959 3097 
Q 1497 3097 1228 2736 
Q 959 2375 959 1747 
Q 959 1119 1226 758 
Q 1494 397 1959 397 
Q 2419 397 2687 759 
Q 2956 1122 2956 1747 
Q 2956 2369 2687 2733 
Q 2419 3097 1959 3097 
z
M 1959 3584 
Q 2709 3584 3137 3096 
Q 3566 2609 3566 1747 
Q 3566 888 3137 398 
Q 2709 -91 1959 -91 
Q 1206 -91 779 398 
Q 353 888 353 1747 
Q 353 2609 779 3096 
Q 1206 3584 1959 3584 
z
" transform="scale(0.015625)"/>
       <path id="DejaVuSans-20" transform="scale(0.015625)"/>
       <path id="DejaVuSans-64" d="M 2906 2969 
L 2906 4863 
L 3481 4863 
L 3481 0 
L 2906 0 
L 2906 525 
Q 2725 213 2448 61 
Q 2172 -91 1784 -91 
Q 1150 -91 751 415 
Q 353 922 353 1747 
Q 353 2572 751 3078 
Q 1150 3584 1784 3584 
Q 2172 3584 2448 3432 
Q 2725 3281 2906 2969 
z
M 947 1747 
Q 947 1113 1208 752 
Q 1469 391 1925 391 
Q 2381 391 2643 752 
Q 2906 1113 2906 1747 
Q 2906 2381 2643 2742 
Q 2381 3103 1925 3103 
Q 1469 3103 1208 2742 
Q 947 2381 947 1747 
z
" transform="scale(0.015625)"/>
       <path id="DejaVuSans-76" d="M 191 3500 
L 800 3500 
L 1894 563 
L 2988 3500 
L 3597 3500 
L 2284 0 
L 1503 0 
L 191 3500 
z
" transform="scale(0.015625)"/>
       <path id="DejaVuSans-69" d="M 603 3500 
L 1178 3500 
L 1178 0 
L 603 0 
L 603 3500 
z
M 603 4863 
L 1178 4863 
L 1178 4134 
L 603 4134 
L 603 4863 
z
" transform="scale(0.015625)"/>
       <path id="DejaVuSans-61" d="M 2194 1759 
Q 1497 1759 1228 1600 
Q 959 1441 959 1056 
Q 959 750 1161 570 
Q 1363 391 1709 391 
Q 2188 391 2477 730 
Q 2766 1069 2766 1631 
L 2766 1759 
L 2194 1759 
z
M 3341 1997 
L 3341 0 
L 2766 0 
L 2766 531 
Q 2569 213 2275 61 
Q 1981 -91 1556 -91 
Q 1019 -91 701 211 
Q 384 513 384 1019 
Q 384 1609 779 1909 
Q 1175 2209 1959 2209 
L 2766 2209 
L 2766 2266 
Q 2766 2663 2505 2880 
Q 2244 3097 1772 3097 
Q 1472 3097 1187 3025 
Q 903 2953 641 2809 
L 641 3341 
Q 956 3463 1253 3523 
Q 1550 3584 1831 3584 
Q 2591 3584 2966 3190 
Q 3341 2797 3341 1997 
z
" transform="scale(0.015625)"/>
       <path id="DejaVuSans-67" d="M 2906 1791 
Q 2906 2416 2648 2759 
Q 2391 3103 1925 3103 
Q 1463 3103 1205 2759 
Q 947 2416 947 1791 
Q 947 1169 1205 825 
Q 1463 481 1925 481 
Q 2391 481 2648 825 
Q 2906 1169 2906 1791 
z
M 3481 434 
Q 3481 -459 3084 -895 
Q 2688 -1331 1869 -1331 
Q 1566 -1331 1297 -1286 
Q 1028 -1241 775 -1147 
L 775 -588 
Q 1028 -725 1275 -790 
Q 1522 -856 1778 -856 
Q 2344 -856 2625 -561 
Q 2906 -266 2906 331 
L 2906 616 
Q 2728 306 2450 153 
Q 2172 0 1784 0 
Q 1141 0 747 490 
Q 353 981 353 1791 
Q 353 2603 747 3093 
Q 1141 3584 1784 3584 
Q 2172 3584 2450 3431 
Q 2728 3278 2906 2969 
L 2906 3500 
L 3481 3500 
L 3481 434 
z
" transform="scale(0.015625)"/>
       <path id="DejaVuSans-28" d="M 1984 4856 
Q 1566 4138 1362 3434 
Q 1159 2731 1159 2009 
Q 1159 1288 1364 580 
Q 1569 -128 1984 -844 
L 1484 -844 
Q 1016 -109 783 600 
Q 550 1309 550 2009 
Q 550 2706 781 3412 
Q 1013 4119 1484 4856 
L 1984 4856 
z
" transform="scale(0.015625)"/>
       <path id="DejaVuSans-73" d="M 2834 3397 
L 2834 2853 
Q 2591 2978 2328 3040 
Q 2066 3103 1784 3103 
Q 1356 3103 1142 2972 
Q 928 2841 928 2578 
Q 928 2378 1081 2264 
Q 1234 2150 1697 2047 
L 1894 2003 
Q 2506 1872 2764 1633 
Q 3022 1394 3022 966 
Q 3022 478 2636 193 
Q 2250 -91 1575 -91 
Q 1294 -91 989 -36 
Q 684 19 347 128 
L 347 722 
Q 666 556 975 473 
Q 1284 391 1588 391 
Q 1994 391 2212 530 
Q 2431 669 2431 922 
Q 2431 1156 2273 1281 
Q 2116 1406 1581 1522 
L 1381 1569 
Q 847 1681 609 1914 
Q 372 2147 372 2553 
Q 372 3047 722 3315 
Q 1072 3584 1716 3584 
Q 2034 3584 2315 3537 
Q 2597 3491 2834 3397 
z
" transform="scale(0.015625)"/>
       <path id="DejaVuSans-29" d="M 513 4856 
L 1013 4856 
Q 1481 4119 1714 3412 
Q 1947 2706 1947 2009 
Q 1947 1309 1714 600 
Q 1481 -109 1013 -844 
L 513 -844 
Q 928 -128 1133 580 
Q 1338 1288 1338 2009 
Q 1338 2731 1133 3434 
Q 928 4138 513 4856 
z
" transform="scale(0.015625)"/>
      </defs>
      <use xlink:href="#DejaVuSans-54"/>
      <use xlink:href="#DejaVuSans-65" x="44.083984"/>
      <use xlink:href="#DejaVuSans-6d" x="105.607422"/>
      <use xlink:href="#DejaVuSans-70" x="203.019531"/>
      <use xlink:href="#DejaVuSans-6f" x="266.496094"/>
      <use xlink:href="#DejaVuSans-20" x="327.677734"/>
      <use xlink:href="#DejaVuSans-64" x="359.464844"/>
      <use xlink:href="#DejaVuSans-65" x="422.941406"/>
      <use xlink:href="#DejaVuSans-20" x="484.464844"/>
      <use xlink:href="#DejaVuSans-76" x="516.251953"/>
      <use xlink:href="#DejaVuSans-69" x="575.431641"/>
      <use xlink:href="#DejaVuSans-61" x="603.214844"/>
      <use xlink:href="#DejaVuSans-67" x="664.494141"/>
      <use xlink:href="#DejaVuSans-65" x="727.970703"/>
      <use xlink:href="#DejaVuSans-6d" x="789.494141"/>
      <use xlink:href="#DejaVuSans-20" x="886.90625"/>
      <use xlink:href="#DejaVuSans-28" x="918.693359"/>
      <use xlink:href="#DejaVuSans-73" x="957.707031"/>
      <use xlink:href="#DejaVuSans-65" x="1009.806641"/>
      <use xlink:href="#DejaVuSans-67" x="1071.330078"/>
      <use xlink:href="#DejaVuSans-29" x="1134.806641"/>
     </g>
    </g>
   </g>
   <g id="line2d_64">
    <path d="M 190.969091 326.923636 
L 191.457715 280.941818 
L 195.220124 234.96 
L 195.904198 257.950909 
L 210.074307 257.950909 
L 255.320932 211.969091 
L 263.187785 211.969091 
L 264.849108 234.96 
L 265.533183 257.950909 
L 266.168394 165.987273 
L 266.999056 303.932727 
L 272.08075 257.950909 
L 275.843159 303.932727 
L 276.380646 280.941818 
L 279.26353 234.96 
L 279.849879 165.987273 
L 280.680541 280.941818 
L 282.439589 372.905455 
L 282.830488 188.978182 
L 287.081521 326.923636 
L 287.570146 326.923636 
L 290.843929 303.932727 
L 291.381416 349.914545 
L 317.180788 280.941818 
L 317.767137 211.969091 
L 319.135285 234.96 
L 319.81936 303.932727 
L 320.992058 165.987273 
L 321.82272 257.950909 
L 325.878303 280.941818 
L 326.464652 234.96 
L 328.370288 74.023636 
L 329.396399 257.950909 
L 332.865633 188.978182 
L 333.647432 234.96 
L 335.01558 188.978182 
L 336.579178 188.978182 
L 337.360977 234.96 
L 341.80746 211.969091 
L 342.540397 211.969091 
L 346.156218 280.941818 
L 346.742567 280.941818 
L 348.99024 257.950909 
L 349.625451 280.941818 
L 350.40725 234.96 
L 351.091325 326.923636 
L 352.312886 303.932727 
L 352.850373 234.96 
L 355.58667 211.969091 
L 356.319606 303.932727 
L 357.443443 303.932727 
L 357.980929 326.923636 
L 361.205851 257.950909 
L 361.841063 326.923636 
L 364.772809 257.950909 
L 365.408021 257.950909 
L 366.77617 326.923636 
L 367.264794 326.923636 
L 387.249534 165.987273 
L 388.129058 211.969091 
L 389.301757 74.023636 
L 390.327868 280.941818 
L 391.402842 120.005455 
L 396.044774 165.987273 
L 396.875436 257.950909 
L 399.123109 211.969091 
L 399.856045 257.950909 
L 403.129829 120.005455 
L 404.058216 234.96 
L 405.377502 188.978182 
L 406.159301 234.96 
L 406.843375 97.014545 
L 407.820624 280.941818 
L 412.071657 188.978182 
L 412.853456 257.950909 
L 416.567002 303.932727 
L 417.104488 280.941818 
L 419.352161 257.950909 
L 419.987373 211.969091 
L 420.671447 211.969091 
L 421.404384 303.932727 
L 422.674807 280.941818 
L 423.261157 280.941818 
L 425.802004 97.014545 
L 426.779253 188.978182 
L 427.805364 303.932727 
L 428.342851 303.932727 
L 431.616635 326.923636 
L 432.105259 280.941818 
L 434.890419 74.023636 
L 435.91653 257.950909 
L 437.577853 349.914545 
L 458.10008 372.905455 
L 458.49098 211.969091 
L 459.663678 74.023636 
L 460.68979 234.96 
L 461.715901 165.987273 
L 462.546563 280.941818 
L 466.455558 188.978182 
L 467.237358 257.950909 
L 469.387305 211.969091 
L 470.120242 234.96 
L 473.638338 280.941818 
L 474.27355 257.950909 
L 475.690561 165.987273 
L 476.521222 211.969091 
L 477.254159 165.987273 
L 478.08482 211.969091 
L 482.335853 165.987273 
L 483.166515 257.950909 
L 486.928923 326.923636 
L 487.417547 257.950909 
L 491.082231 257.950909 
L 491.717443 326.923636 
L 492.987866 257.950909 
L 493.623078 303.932727 
L 496.310513 280.941818 
L 496.896862 280.941818 
L 498.167285 257.950909 
L 498.802497 326.923636 
L 501.783106 234.96 
L 502.467181 280.941818 
L 505.25234 97.014545 
L 506.229589 280.941818 
L 507.500013 349.914545 
L 507.939775 349.914545 
L 528.852901 211.969091 
L 530.123325 165.987273 
L 530.953986 257.950909 
L 531.980098 120.005455 
L 532.908484 211.969091 
L 537.01293 280.941818 
L 537.599279 234.96 
L 539.798089 234.96 
L 540.482163 257.950909 
L 543.80481 142.996364 
L 544.684334 188.978182 
L 546.101344 188.978182 
L 546.883144 234.96 
L 547.567218 120.005455 
L 548.495604 257.950909 
L 553.577299 257.950909 
L 557.241982 303.932727 
L 557.779469 257.950909 
L 560.027141 257.950909 
L 560.662353 234.96 
L 561.59074 280.941818 
L 562.177089 326.923636 
L 563.349788 257.950909 
L 566.672434 257.950909 
L 567.307646 280.941818 
L 568.529207 280.941818 
L 569.115556 303.932727 
L 572.291615 257.950909 
L 572.926827 188.978182 
L 575.711986 165.987273 
L 576.542648 234.96 
L 577.861934 326.923636 
L 578.350558 372.905455 
L 598.628473 326.923636 
L 599.117098 303.932727 
L 602.146569 188.978182 
L 602.928369 280.941818 
L 614.557631 303.932727 
L 615.095117 303.932727 
L 619.297288 280.941818 
L 619.883637 257.950909 
L 626.52893 372.905455 
L 626.919829 257.950909 
L 630.7311 303.932727 
L 631.268587 280.941818 
L 636.936631 257.950909 
L 637.571842 234.96 
L 645.927321 280.941818 
L 683.502541 303.932727 
L 684.040028 303.932727 
L 687.606987 142.996364 
L 688.486511 303.932727 
L 696.597676 280.941818 
L 697.184026 280.941818 
L 702.26572 97.014545 
L 748.049832 303.932727 
L 748.587318 234.96 
L 755.086024 234.96 
L 755.770098 326.923636 
L 757.187109 211.969091 
L 757.920046 280.941818 
L 758.506395 97.014545 
L 759.483644 280.941818 
L 764.711925 234.96 
L 768.376609 280.941818 
L 768.962958 280.941818 
L 771.210631 257.950909 
L 771.845842 280.941818 
L 772.383329 165.987273 
L 773.213991 303.932727 
L 774.435552 303.932727 
L 774.973039 280.941818 
L 779.614971 326.923636 
L 780.103596 303.932727 
L 783.523967 349.914545 
L 783.963729 326.923636 
L 810.251725 211.969091 
L 811.473286 142.996364 
L 812.35281 257.950909 
L 813.281196 74.023636 
L 814.307308 257.950909 
L 817.825404 74.023636 
L 818.851515 188.978182 
L 821.14805 142.996364 
L 822.027574 303.932727 
L 825.54567 395.896364 
L 825.887707 234.96 
L 827.500168 257.950909 
L 828.13538 234.96 
L 828.819454 142.996364 
L 829.698978 211.969091 
L 834.634085 418.887273 
L 834.92726 234.96 
L 838.689668 372.905455 
L 839.080567 280.941818 
L 841.425965 280.941818 
L 842.012314 234.96 
L 842.794113 211.969091 
L 843.52705 303.932727 
L 844.797474 349.914545 
L 845.237236 326.923636 
L 848.12012 372.905455 
L 848.511019 280.941818 
L 849.976893 372.905455 
L 850.367792 326.923636 
L 853.690439 372.905455 
L 854.081338 326.923636 
L 857.013085 188.978182 
L 857.794884 211.969091 
L 859.30962 349.914545 
L 859.749382 349.914545 
L 879.68526 97.014545 
L 880.662509 257.950909 
L 881.88407 211.969091 
L 882.617006 234.96 
L 883.789705 234.96 
L 884.473779 257.950909 
L 888.724812 395.896364 
L 889.066849 165.987273 
L 891.461109 257.950909 
L 892.096321 257.950909 
L 895.614417 234.96 
L 896.738253 303.932727 
L 897.27574 165.987273 
L 898.106402 257.950909 
L 898.741613 257.950909 
L 899.376825 165.987273 
L 900.207487 257.950909 
L 904.605107 188.978182 
L 905.386906 234.96 
L 909.002727 211.969091 
L 909.735664 188.978182 
L 911.690161 142.996364 
L 912.569685 142.996364 
L 913.156035 234.96 
L 913.840109 303.932727 
L 914.768495 97.014545 
L 915.745744 211.969091 
L 918.433179 257.950909 
L 919.068391 211.969091 
L 920.338814 303.932727 
L 920.876301 280.941818 
L 923.759185 165.987273 
L 924.589847 303.932727 
L 927.375006 97.014545 
L 928.352255 303.932727 
L 929.671541 372.905455 
L 930.062441 349.914545 
L 950.291493 257.950909 
L 950.926705 188.978182 
L 952.197129 120.005455 
L 953.125515 257.950909 
L 954.200489 142.996364 
L 955.080013 303.932727 
L 959.086733 303.932727 
L 959.62422 234.96 
L 961.82303 211.969091 
L 962.555967 257.950909 
L 966.122926 257.950909 
L 966.758137 211.969091 
L 968.224011 188.978182 
L 969.00581 280.941818 
L 969.641022 120.005455 
L 970.569408 280.941818 
L 975.162478 257.950909 
L 979.462373 257.950909 
L 980.097585 326.923636 
L 983.517956 211.969091 
L 984.250893 326.923636 
L 985.472454 234.96 
L 986.156528 234.96 
L 988.550788 142.996364 
L 989.430312 280.941818 
L 990.505286 234.96 
L 991.18936 326.923636 
L 994.414282 303.932727 
L 994.951768 257.950909 
L 997.834653 142.996364 
L 998.714177 280.941818 
L 999.9846 326.923636 
L 1000.473225 372.905455 
L 1020.409103 142.996364 
L 1021.288627 211.969091 
L 1022.510188 142.996364 
L 1023.389712 234.96 
L 1024.415823 74.023636 
L 1025.441934 257.950909 
L 1029.15548 142.996364 
L 1030.035004 211.969091 
L 1032.184952 165.987273 
L 1033.015613 280.941818 
L 1036.33826 120.005455 
L 1037.266646 234.96 
L 1038.585932 188.978182 
L 1039.367731 257.950909 
L 1040.002943 97.014545 
L 1040.980192 257.950909 
L 1045.524399 257.950909 
L 1046.159611 280.941818 
L 1049.824295 303.932727 
L 1050.361782 303.932727 
L 1052.560592 257.950909 
L 1053.195803 257.950909 
L 1053.831015 142.996364 
L 1054.710539 303.932727 
L 1055.883238 234.96 
L 1056.567312 280.941818 
L 1059.108159 211.969091 
L 1059.841096 280.941818 
L 1061.013795 303.932727 
L 1061.551282 303.932727 
L 1064.825065 326.923636 
L 1065.31369 234.96 
L 1068.098849 97.014545 
L 1069.076098 211.969091 
L 1070.395384 280.941818 
L 1070.981734 395.896364 
L 1090.819886 165.987273 
L 1091.650548 234.96 
L 1094.631157 211.969091 
L 1095.364094 257.950909 
L 1106.797906 165.987273 
L 1107.628568 211.969091 
L 1111.733013 257.950909 
L 1118.67148 257.950909 
L 1119.306692 188.978182 
L 1123.215688 257.950909 
L 1123.8509 234.96 
L 1129.372356 372.905455 
L 1129.763255 280.941818 
L 1138.509633 280.941818 
L 1175.547367 97.014545 
L 1176.524616 234.96 
L 1180.287024 280.941818 
L 1180.873373 188.978182 
L 1188.935677 234.96 
L 1189.619751 257.950909 
L 1194.99462 165.987273 
L 1240.729869 349.914545 
L 1241.169631 234.96 
L 1247.326299 165.987273 
L 1248.156961 257.950909 
L 1249.378522 51.032727 
L 1250.453496 280.941818 
L 1251.039845 74.023636 
L 1252.065956 280.941818 
L 1263.499769 257.950909 
L 1264.13498 326.923636 
L 1264.91678 188.978182 
L 1265.698579 326.923636 
L 1266.626965 120.005455 
L 1267.555352 257.950909 
L 1272.001834 257.950909 
L 1272.637046 303.932727 
L 1302.68745 211.969091 
L 1303.909011 120.005455 
L 1304.837398 257.950909 
L 1305.961234 142.996364 
L 1306.840758 280.941818 
L 1310.505441 97.014545 
L 1311.48269 257.950909 
L 1313.632638 257.950909 
L 1314.26785 280.941818 
L 1317.639358 120.005455 
L 1318.567745 303.932727 
L 1319.984756 188.978182 
L 1320.766555 234.96 
L 1321.450629 97.014545 
L 1322.427878 257.950909 
L 1326.972085 280.941818 
L 1331.223118 234.96 
L 1331.907192 326.923636 
L 1333.910553 165.987273 
L 1334.741214 211.969091 
L 1336.011638 349.914545 
L 1337.135474 211.969091 
L 1337.868411 280.941818 
L 1340.311533 120.005455 
L 1341.239919 303.932727 
L 1342.461481 303.932727 
L 1342.998967 326.923636 
L 1346.712513 326.923636 
L 1349.595398 165.987273 
L 1351.794208 349.914545 
L 1352.23397 326.923636 
L 1373.147096 211.969091 
L 1374.270933 74.023636 
L 1375.297044 257.950909 
L 1376.274293 97.014545 
L 1377.251542 280.941818 
L 1381.01395 142.996364 
L 1381.893474 280.941818 
L 1384.092284 257.950909 
L 1384.727496 280.941818 
L 1388.00128 74.023636 
L 1389.027391 211.969091 
L 1390.444402 165.987273 
L 1391.275064 257.950909 
L 1391.959138 142.996364 
L 1392.838662 257.950909 
L 1397.382869 326.923636 
L 1397.871494 280.941818 
L 1401.682764 326.923636 
L 1402.220251 280.941818 
L 1404.223612 211.969091 
L 1404.956548 280.941818 
L 1405.884935 280.941818 
L 1406.471284 326.923636 
L 1407.692845 234.96 
L 1408.376919 280.941818 
L 1410.917767 211.969091 
L 1411.650703 280.941818 
L 1412.823402 280.941818 
L 1413.409751 326.923636 
L 1416.683535 349.914545 
L 1417.123297 372.905455 
L 1420.055044 142.996364 
L 1420.934568 257.950909 
L 1422.204992 303.932727 
L 1422.742478 349.914545 
L 1442.824944 234.96 
L 1443.509018 165.987273 
L 1445.707828 257.950909 
L 1446.685077 120.005455 
L 1447.613463 280.941818 
L 1451.571321 211.969091 
L 1452.304258 303.932727 
L 1454.405343 211.969091 
L 1455.13828 280.941818 
L 1458.607513 234.96 
L 1459.291588 234.96 
L 1461.001773 257.950909 
L 1461.636985 257.950909 
L 1462.272197 142.996364 
L 1463.151721 280.941818 
L 1467.598203 257.950909 
L 1468.233415 257.950909 
L 1471.946961 280.941818 
L 1472.53331 303.932727 
L 1474.780983 280.941818 
L 1475.367332 257.950909 
L 1476.197994 257.950909 
L 1476.833206 326.923636 
L 1478.005904 234.96 
L 1478.689978 280.941818 
L 1481.377413 257.950909 
L 1482.012625 303.932727 
L 1483.185323 280.941818 
L 1483.771673 326.923636 
L 1486.898869 303.932727 
L 1487.436356 280.941818 
L 1490.270378 120.005455 
L 1491.198765 257.950909 
L 1493.055537 349.914545 
L 1512.795965 74.023636 
L 1513.822077 234.96 
L 1515.141363 142.996364 
L 1516.020887 257.950909 
L 1516.949273 74.023636 
L 1517.975385 257.950909 
L 1522.07983 257.950909 
L 1522.715042 280.941818 
L 1524.816127 234.96 
L 1525.500201 234.96 
L 1528.920572 188.978182 
L 1529.702372 257.950909 
L 1531.119382 165.987273 
L 1531.950044 257.950909 
L 1532.731843 165.987273 
L 1533.562505 280.941818 
L 1538.106712 326.923636 
L 1538.595337 257.950909 
L 1542.406607 257.950909 
L 1543.041819 303.932727 
L 1545.826979 280.941818 
L 1547.146265 280.941818 
L 1548.367826 234.96 
L 1549.0519 257.950909 
L 1551.739334 257.950909 
L 1552.374546 326.923636 
L 1553.596107 303.932727 
L 1554.133594 303.932727 
L 1556.918754 97.014545 
L 1557.896003 303.932727 
L 1560.681162 51.032727 
L 1561.756136 257.950909 
L 1562.977697 349.914545 
L 1563.417459 326.923636 
L 1583.695374 349.914545 
L 1584.135136 326.923636 
L 1587.360057 349.914545 
L 1587.799819 349.914545 
L 1600.308605 395.896364 
L 1604.364188 280.941818 
L 1604.950538 211.969091 
L 1611.98673 120.005455 
L 1615.798 188.978182 
L 1616.5798 211.969091 
L 1621.905806 280.941818 
L 1622.492155 234.96 
L 1630.945359 326.923636 
L 1668.960341 326.923636 
L 1672.771612 280.941818 
L 1673.357961 303.932727 
L 1682.348651 234.96 
L 1687.821245 303.932727 
L 1733.019007 257.950909 
L 1733.654219 257.950909 
L 1739.713162 74.023636 
L 1740.739273 234.96 
L 1742.058559 120.005455 
L 1742.986946 280.941818 
L 1743.573295 74.023636 
L 1753.492372 326.923636 
L 1753.980996 326.923636 
L 1756.228669 257.950909 
L 1756.86388 234.96 
L 1757.596817 257.950909 
L 1758.232029 326.923636 
L 1759.45359 234.96 
L 1760.137664 303.932727 
L 1764.633009 257.950909 
L 1765.268221 326.923636 
L 1768.297693 234.96 
L 1768.981767 372.905455 
L 1794.732276 280.941818 
L 1796.540186 142.996364 
L 1797.41971 234.96 
L 1798.592409 142.996364 
L 1803.332066 211.969091 
L 1804.065003 211.969091 
L 1806.312675 234.96 
L 1806.996749 280.941818 
L 1810.270533 142.996364 
L 1811.150057 257.950909 
L 1812.860243 303.932727 
L 1813.39773 257.950909 
L 1814.032942 120.005455 
L 1814.961328 257.950909 
L 1819.212361 142.996364 
L 1820.091885 280.941818 
L 1823.756568 257.950909 
L 1824.39178 280.941818 
L 1826.541728 211.969091 
L 1827.274664 303.932727 
L 1827.861014 188.978182 
L 1828.642813 326.923636 
L 1829.815512 211.969091 
L 1830.548448 280.941818 
L 1833.089295 257.950909 
L 1833.724507 280.941818 
L 1834.994931 303.932727 
L 1835.532418 326.923636 
L 1838.806201 303.932727 
L 1839.343688 303.932727 
L 1842.226573 165.987273 
L 1843.057234 303.932727 
L 1844.425383 372.905455 
L 1844.816282 326.923636 
L 1865.045335 257.950909 
L 1865.680546 188.978182 
L 1867.928219 303.932727 
L 1869.003193 188.978182 
L 1869.784992 280.941818 
L 1873.645125 188.978182 
L 1874.426924 280.941818 
L 1876.576872 188.978182 
L 1877.358671 280.941818 
L 1880.583592 120.005455 
L 1881.511979 188.978182 
L 1882.92899 165.987273 
L 1883.759651 303.932727 
L 1885.420974 211.969091 
L 1889.72087 234.96 
L 1890.404944 257.950909 
L 1894.167352 211.969091 
L 1894.900289 280.941818 
L 1896.952512 165.987273 
L 1897.783173 188.978182 
L 1898.369522 280.941818 
L 1898.955872 326.923636 
L 1900.079708 257.950909 
L 1900.71492 303.932727 
L 1903.500079 257.950909 
L 1904.135291 280.941818 
L 1905.356852 303.932727 
L 1905.894339 303.932727 
L 1909.11926 211.969091 
L 1909.852197 326.923636 
L 1912.686219 234.96 
L 1913.370293 280.941818 
L 1914.738442 280.941818 
L 1915.373654 395.896364 
L 1935.309531 165.987273 
L 1936.140193 234.96 
L 1937.117442 51.032727 
L 1938.192416 234.96 
L 1939.365114 165.987273 
L 1943.762734 97.014545 
L 1944.739983 234.96 
L 1946.987656 211.969091 
L 1947.720592 280.941818 
L 1950.847789 74.023636 
L 1951.8739 303.932727 
L 1953.339774 188.978182 
L 1954.121573 257.950909 
L 1954.756785 120.005455 
L 1955.685171 257.950909 
L 1960.033929 188.978182 
L 1960.815728 280.941818 
L 1964.480411 280.941818 
L 1965.066761 303.932727 
L 1967.265571 234.96 
L 1967.949645 303.932727 
L 1968.633719 234.96 
L 1969.317793 349.914545 
L 1970.343905 142.996364 
L 1971.223429 211.969091 
L 1973.764276 142.996364 
L 1974.6438 303.932727 
L 1975.718774 280.941818 
L 1976.305123 303.932727 
L 1979.627769 372.905455 
L 1980.018669 303.932727 
L 1982.999278 165.987273 
L 1983.82994 280.941818 
L 1984.465151 51.032727 
L 1985.540125 326.923636 
L 2005.720315 234.96 
L 2006.404389 211.969091 
L 2008.505475 257.950909 
L 2009.580448 142.996364 
L 2010.459972 280.941818 
L 2014.222381 142.996364 
L 2015.101905 280.941818 
L 2017.349577 234.96 
L 2018.033651 257.950909 
L 2021.454023 188.978182 
L 2023.897145 257.950909 
L 2024.532357 257.950909 
L 2025.167568 142.996364 
L 2026.047092 257.950909 
L 2031.324237 257.950909 
L 2034.98892 303.932727 
L 2035.526407 257.950909 
L 2037.676354 257.950909 
L 2038.311566 211.969091 
L 2039.093365 257.950909 
L 2039.728577 303.932727 
L 2040.852413 211.969091 
L 2041.58535 234.96 
L 2044.126197 188.978182 
L 2044.907996 280.941818 
L 2046.080695 280.941818 
L 2046.667044 257.950909 
L 2049.891966 326.923636 
L 2050.429453 280.941818 
L 2053.214612 120.005455 
L 2054.142999 234.96 
L 2055.511147 349.914545 
L 2055.950909 349.914545 
L 2055.950909 349.914545 
" clip-path="url(#pafec0aa12b)" style="fill: none; stroke: #1f77b4; stroke-width: 1.5; stroke-linecap: square"/>
   </g>
   <g id="patch_3">
    <path d="M 97.72 437.28 
L 97.72 32.64 
" style="fill: none; stroke: #000000; stroke-width: 0.8; stroke-linejoin: miter; stroke-linecap: square"/>
   </g>
   <g id="patch_4">
    <path d="M 2149.2 437.28 
L 2149.2 32.64 
" style="fill: none; stroke: #000000; stroke-width: 0.8; stroke-linejoin: miter; stroke-linecap: square"/>
   </g>
   <g id="patch_5">
    <path d="M 97.72 437.28 
L 2149.2 437.28 
" style="fill: none; stroke: #000000; stroke-width: 0.8; stroke-linejoin: miter; stroke-linecap: square"/>
   </g>
   <g id="patch_6">
    <path d="M 97.72 32.64 
L 2149.2 32.64 
" style="fill: none; stroke: #000000; stroke-width: 0.8; stroke-linejoin: miter; stroke-linecap: square"/>
   </g>
   <g id="text_36">
    <!-- Linha 362 -->
    <g transform="translate(1074.04125 26.64) scale(0.2 -0.2)">
     <defs>
      <path id="DejaVuSans-4c" d="M 628 4666 
L 1259 4666 
L 1259 531 
L 3531 531 
L 3531 0 
L 628 0 
L 628 4666 
z
" transform="scale(0.015625)"/>
      <path id="DejaVuSans-6e" d="M 3513 2113 
L 3513 0 
L 2938 0 
L 2938 2094 
Q 2938 2591 2744 2837 
Q 2550 3084 2163 3084 
Q 1697 3084 1428 2787 
Q 1159 2491 1159 1978 
L 1159 0 
L 581 0 
L 581 3500 
L 1159 3500 
L 1159 2956 
Q 1366 3272 1645 3428 
Q 1925 3584 2291 3584 
Q 2894 3584 3203 3211 
Q 3513 2838 3513 2113 
z
" transform="scale(0.015625)"/>
      <path id="DejaVuSans-68" d="M 3513 2113 
L 3513 0 
L 2938 0 
L 2938 2094 
Q 2938 2591 2744 2837 
Q 2550 3084 2163 3084 
Q 1697 3084 1428 2787 
Q 1159 2491 1159 1978 
L 1159 0 
L 581 0 
L 581 4863 
L 1159 4863 
L 1159 2956 
Q 1366 3272 1645 3428 
Q 1925 3584 2291 3584 
Q 2894 3584 3203 3211 
Q 3513 2838 3513 2113 
z
" transform="scale(0.015625)"/>
     </defs>
     <use xlink:href="#DejaVuSans-4c"/>
     <use xlink:href="#DejaVuSans-69" x="55.712891"/>
     <use xlink:href="#DejaVuSans-6e" x="83.496094"/>
     <use xlink:href="#DejaVuSans-68" x="146.875"/>
     <use xlink:href="#DejaVuSans-61" x="210.253906"/>
     <use xlink:href="#DejaVuSans-20" x="271.533203"/>
     <use xlink:href="#DejaVuSans-33" x="303.320312"/>
     <use xlink:href="#DejaVuSans-36" x="366.943359"/>
     <use xlink:href="#DejaVuSans-32" x="430.566406"/>
    </g>
   </g>
  </g>
 </g>
 <defs>
  <clipPath id="pafec0aa12b">
   <rect x="97.72" y="32.64" width="2051.48" height="404.64"/>
  </clipPath>
 </defs>
</svg>
